#N canvas 2164 7 1194 691 12;
#X obj 116 55 loop_mother 1;
#X obj 116 225 dac~ 1;
#X obj 347 379 loop_track 2 1;
#X obj 578 378 loop_track 3 1;
#X obj 808 380 loop_track 4 1;
#X obj 115 348 r~ \$0-signal-in;
#X obj 347 352 r~ \$0-signal-in;
#X obj 578 352 r~ \$0-signal-in;
#X obj 808 352 r~ \$0-signal-in;
#X obj 308 351 t b;
#X obj 540 352 t b;
#X obj 771 353 t b;
#X obj 1001 354 t b;
#X obj 493 620 dac~;
#X obj 115 377 loop_track 5 1;
#X obj 423 147 s~ \$0-signal-in;
#X text 779 53 DOCS;
#X text 627 78 - a loop mother is necessary to control the loop tracks;
#X text 627 100 - loop mother determines base BPM and number of beats per loop;
#X text 628 134 - a loop can record any integer subdivision \, starting from the first beat;
#X text 628 170 - tempo can be changed dynamically;
#X text 631 189 - loop tracks with the same mother can sample different sources;
#X text 632 222 - more than one mother can be linked with eg. clock dividers...;
#N canvas 92 130 401 260 record-loop-1 0;
#X obj 88 178 writesf~;
#X msg 111 150 start;
#X msg 88 124 stop;
#X obj 88 74 sel 0 1;
#X obj 88 50 r 1-START-MOTHER;
#X obj 111 100 t b b;
#X msg 143 127 open performance/loop-1.wav;
#X obj 52 150 inlet~;
#X connect 1 0 0 0;
#X connect 2 0 0 0;
#X connect 3 0 2 0;
#X connect 3 1 5 0;
#X connect 4 0 3 0;
#X connect 5 0 1 0;
#X connect 5 1 6 0;
#X connect 6 0 0 0;
#X connect 7 0 0 0;
#X restore 115 516 pd record-loop-1;
#N canvas 92 130 401 260 record-loop-2 0;
#X obj 88 178 writesf~;
#X msg 111 150 start;
#X msg 88 124 stop;
#X obj 88 74 sel 0 1;
#X obj 88 50 r 1-START-MOTHER;
#X obj 111 100 t b b;
#X obj 52 150 inlet~;
#X msg 143 127 open performance/loop-2.wav;
#X connect 1 0 0 0;
#X connect 2 0 0 0;
#X connect 3 0 2 0;
#X connect 3 1 5 0;
#X connect 4 0 3 0;
#X connect 5 0 1 0;
#X connect 5 1 7 0;
#X connect 6 0 0 0;
#X connect 7 0 0 0;
#X restore 347 515 pd record-loop-2;
#N canvas 92 130 401 260 record-loop-3 0;
#X obj 88 178 writesf~;
#X msg 111 150 start;
#X msg 88 124 stop;
#X obj 88 74 sel 0 1;
#X obj 88 50 r 1-START-MOTHER;
#X obj 111 100 t b b;
#X obj 52 150 inlet~;
#X msg 143 127 open performance/loop-3.wav;
#X connect 1 0 0 0;
#X connect 2 0 0 0;
#X connect 3 0 2 0;
#X connect 3 1 5 0;
#X connect 4 0 3 0;
#X connect 5 0 1 0;
#X connect 5 1 7 0;
#X connect 6 0 0 0;
#X connect 7 0 0 0;
#X restore 578 513 pd record-loop-3;
#N canvas 92 130 401 260 record-loop-4 0;
#X obj 88 178 writesf~;
#X msg 111 150 start;
#X msg 88 124 stop;
#X obj 88 74 sel 0 1;
#X obj 88 50 r 1-START-MOTHER;
#X obj 111 100 t b b;
#X obj 52 150 inlet~;
#X msg 143 127 open performance/loop-4.wav;
#X connect 1 0 0 0;
#X connect 2 0 0 0;
#X connect 3 0 2 0;
#X connect 3 1 5 0;
#X connect 4 0 3 0;
#X connect 5 0 1 0;
#X connect 5 1 7 0;
#X connect 6 0 0 0;
#X connect 7 0 0 0;
#X restore 808 514 pd record-loop-4;
#N canvas 121 159 392 281 record-dryin 0;
#X obj 92 177 writesf~;
#X msg 115 149 start;
#X msg 92 123 stop;
#X obj 92 73 sel 0 1;
#X obj 92 49 r 1-START-MOTHER;
#X msg 147 126 open performance/dry-in.wav;
#X obj 115 99 t b b;
#X obj 61 149 inlet~;
#X connect 1 0 0 0;
#X connect 2 0 0 0;
#X connect 3 0 2 0;
#X connect 3 1 6 0;
#X connect 4 0 3 0;
#X connect 5 0 0 0;
#X connect 6 0 1 0;
#X connect 6 1 5 0;
#X connect 7 0 0 0;
#X restore 423 172 pd record-dryin;
#X obj 493 588 catch~ \$0-OUT;
#X obj 423 199 throw~ \$0-OUT;
#N canvas 63 101 1082 354 adc-1~ 0;
#X obj 102 117 cnv 19 140 30 empty empty empty 20 12 0 12 #ffc7c6 #404040 0;
#X obj 257 266 *~;
#X obj 328 267 *~;
#X obj 113 126 hsl 120 15 0 1 0 0 empty empty gain 10 8 0 12 #fcfcfc #000000 #000000 0 1;
#X obj 257 294 outlet~;
#X obj 328 295 outlet~;
#X obj 257 239 hip~ 5;
#X obj 328 239 hip~ 5;
#X obj 273 103 limiter;
#X obj 273 127 clip~ -0.9 0.9;
#X obj 273 79 inlet~;
#X obj 273 185 vstplugin~;
#N canvas 101 355 513 414 message-out 0;
#X obj 20 17 inlet;
#X obj 20 63 s \$0-program-data;
#X obj 20 40 route program_data bank_data, f 39;
#X obj 135 63 s \$0-bank-data;
#X obj 278 135 print;
#X obj 278 114 spigot 1;
#X obj 337 114 tgl 15 0 empty empty empty 17 7 0 10 #fcfcfc #000000 #000000 0 1;
#X text 358 113 print messages;
#X obj 251 86 s \$0-out;
#X obj 251 63 t a a;
#X msg 28 178 param_automated <index> <value>;
#X msg 28 204 latency <numsamples>;
#X msg 30 257 midi <bytes...>;
#X msg 29 284 sysex <bytes...>;
#X text 233 172 a parameter has been changed in the GUI (or by changing a linked parameter)., f 40;
#X text 162 204 the plugin's internal processing latency has changed;
#X text 139 257 a MIDI message sent by the plugin;
#X text 139 284 a SysEx message sent by the plugin;
#X text 28 153 events:;
#X text 163 222 NOTE: the value includes the additional latency caused by multithreading (see the "-t" flag for "open"), f 55;
#X msg 29 337 crash;
#X text 312 85 goes to vstpresetbrowser;
#X text 23 87 see [pd preset];
#X text 83 338 the plugin subprocess has crashed.;
#X text 84 356 This is only sent for bridged or sandboxed plugins \, because normal plugins would simply crash Pd., f 52;
#X msg 29 311 update;
#X text 87 312 multiple parameters have changed internally;
#X connect 0 0 2 0;
#X connect 2 0 1 0;
#X connect 2 1 3 0;
#X connect 2 2 9 0;
#X connect 5 0 4 0;
#X connect 6 0 5 1;
#X connect 9 0 8 0;
#X connect 9 1 5 0;
#X restore 340 210 pd message-out;
#X msg 153 210 param_list;
#X obj 633 51 loadbang;
#X msg 559 204 preset_list;
#X text 651 205 find out path of presets;
#X text 742 228 save current settings as preset;
#X msg 559 254 param_list;
#X text 647 254 print list of plugin parameters;
#X obj 633 96 del 5;
#X obj 544 96 del 10;
#X msg 559 229 preset_save <Tone> 0;
#X obj 545 278 s \$0-amp-msg;
#X obj 153 184 r \$0-amp-msg;
#X msg 633 119 open -e Archetype_Nolly_X;
#X text 365 182 GUITAR AMPLIFIER;
#X msg 544 147 program_read /Users/vincemad/Library/Audio/Presets/Neural\ DSP/Archetype\ Nolly\ X/_Tone_.fxp, f 63;
#X connect 1 0 4 0;
#X connect 2 0 5 0;
#X connect 3 0 2 1;
#X connect 3 0 1 1;
#X connect 6 0 1 0;
#X connect 7 0 2 0;
#X connect 8 0 9 0;
#X connect 9 0 11 0;
#X connect 9 0 11 1;
#X connect 10 0 8 0;
#X connect 11 0 6 0;
#X connect 11 1 7 0;
#X connect 11 2 12 0;
#X connect 13 0 11 0;
#X connect 14 0 20 0;
#X connect 14 0 21 0;
#X connect 15 0 23 0;
#X connect 18 0 23 0;
#X connect 20 0 25 0;
#X connect 21 0 27 0;
#X connect 22 0 23 0;
#X connect 24 0 11 0;
#X connect 25 0 23 0;
#X connect 27 0 23 0;
#X coords 0 -1 1 1 145 50 1 100 100;
#X restore 423 84 pd adc-1~;
#X obj 423 56 adc~ 1;
#X obj 308 327 ctlin 1 1;
#X obj 540 328 ctlin 2 1;
#X obj 771 329 ctlin 3 1;
#X obj 1001 330 ctlin 4 1;
#N canvas 121 159 392 281 record-full 0;
#X obj 92 177 writesf~;
#X msg 115 149 start;
#X msg 92 123 stop;
#X obj 92 73 sel 0 1;
#X obj 92 49 r 1-START-MOTHER;
#X obj 115 99 t b b;
#X obj 61 149 inlet~;
#X msg 147 126 open performance/full.wav;
#X connect 1 0 0 0;
#X connect 2 0 0 0;
#X connect 3 0 2 0;
#X connect 3 1 5 0;
#X connect 4 0 3 0;
#X connect 5 0 1 0;
#X connect 5 1 7 0;
#X connect 6 0 0 0;
#X connect 7 0 0 0;
#X restore 548 618 pd record-full;
#X connect 0 0 1 0;
#X connect 2 0 13 0;
#X connect 2 0 24 0;
#X connect 2 0 36 0;
#X connect 3 0 13 1;
#X connect 3 0 25 0;
#X connect 3 0 36 0;
#X connect 4 0 13 1;
#X connect 4 0 26 0;
#X connect 4 0 36 0;
#X connect 5 0 14 0;
#X connect 6 0 2 0;
#X connect 7 0 3 0;
#X connect 8 0 4 0;
#X connect 9 0 14 1;
#X connect 10 0 2 1;
#X connect 11 0 3 1;
#X connect 12 0 4 1;
#X connect 14 0 13 0;
#X connect 14 0 23 0;
#X connect 14 0 36 0;
#X connect 28 0 13 0;
#X connect 28 0 13 1;
#X connect 28 0 36 0;
#X connect 30 0 15 0;
#X connect 30 0 29 0;
#X connect 30 0 27 0;
#X connect 30 1 15 0;
#X connect 30 1 29 0;
#X connect 30 1 27 0;
#X connect 31 0 30 0;
#X connect 32 0 9 0;
#X connect 33 0 10 0;
#X connect 34 0 11 0;
#X connect 35 0 12 0;
