#N canvas 318 38 1194 691 12;
#X obj 116 55 loop_mother 1;
#X obj 116 225 dac~ 1;
#X obj 347 379 loop_track 2 1;
#X obj 578 378 loop_track 3 1;
#X obj 808 380 loop_track 4 1;
#X obj 115 348 r~ \$0-signal-in;
#X obj 347 352 r~ \$0-signal-in;
#X obj 578 352 r~ \$0-signal-in;
#X obj 808 352 r~ \$0-signal-in;
#X obj 308 351 t b;
#X obj 540 352 t b;
#X obj 771 353 t b;
#X obj 1001 354 t b;
#X obj 493 620 dac~;
#X obj 115 377 loop_track 5 1;
#X obj 423 147 s~ \$0-signal-in;
#X text 779 53 DOCS;
#X text 627 78 - a loop mother is necessary to control the loop tracks;
#X text 627 100 - loop mother determines base BPM and number of beats per loop;
#X text 628 134 - a loop can record any integer subdivision \, starting from the first beat;
#X text 628 170 - tempo can be changed dynamically;
#X text 631 189 - loop tracks with the same mother can sample different sources;
#X text 632 222 - more than one mother can be linked with eg. clock dividers...;
#N canvas 92 130 401 260 record-loop-1 0;
#X obj 88 178 writesf~;
#X msg 111 150 start;
#X msg 88 124 stop;
#X obj 88 74 sel 0 1;
#X obj 88 50 r 1-START-MOTHER;
#X obj 111 100 t b b;
#X msg 143 127 open performance/loop-1.wav;
#X obj 52 150 inlet~;
#X connect 1 0 0 0;
#X connect 2 0 0 0;
#X connect 3 0 2 0;
#X connect 3 1 5 0;
#X connect 4 0 3 0;
#X connect 5 0 1 0;
#X connect 5 1 6 0;
#X connect 6 0 0 0;
#X connect 7 0 0 0;
#X restore 115 516 pd record-loop-1;
#N canvas 92 130 401 260 record-loop-2 0;
#X obj 88 178 writesf~;
#X msg 111 150 start;
#X msg 88 124 stop;
#X obj 88 74 sel 0 1;
#X obj 88 50 r 1-START-MOTHER;
#X obj 111 100 t b b;
#X obj 52 150 inlet~;
#X msg 143 127 open performance/loop-2.wav;
#X connect 1 0 0 0;
#X connect 2 0 0 0;
#X connect 3 0 2 0;
#X connect 3 1 5 0;
#X connect 4 0 3 0;
#X connect 5 0 1 0;
#X connect 5 1 7 0;
#X connect 6 0 0 0;
#X connect 7 0 0 0;
#X restore 347 515 pd record-loop-2;
#N canvas 92 130 401 260 record-loop-3 0;
#X obj 88 178 writesf~;
#X msg 111 150 start;
#X msg 88 124 stop;
#X obj 88 74 sel 0 1;
#X obj 88 50 r 1-START-MOTHER;
#X obj 111 100 t b b;
#X obj 52 150 inlet~;
#X msg 143 127 open performance/loop-3.wav;
#X connect 1 0 0 0;
#X connect 2 0 0 0;
#X connect 3 0 2 0;
#X connect 3 1 5 0;
#X connect 4 0 3 0;
#X connect 5 0 1 0;
#X connect 5 1 7 0;
#X connect 6 0 0 0;
#X connect 7 0 0 0;
#X restore 578 513 pd record-loop-3;
#N canvas 92 130 401 260 record-loop-4 0;
#X obj 88 178 writesf~;
#X msg 111 150 start;
#X msg 88 124 stop;
#X obj 88 74 sel 0 1;
#X obj 88 50 r 1-START-MOTHER;
#X obj 111 100 t b b;
#X obj 52 150 inlet~;
#X msg 143 127 open performance/loop-4.wav;
#X connect 1 0 0 0;
#X connect 2 0 0 0;
#X connect 3 0 2 0;
#X connect 3 1 5 0;
#X connect 4 0 3 0;
#X connect 5 0 1 0;
#X connect 5 1 7 0;
#X connect 6 0 0 0;
#X connect 7 0 0 0;
#X restore 808 514 pd record-loop-4;
#N canvas 121 159 392 281 record-dryin 0;
#X obj 92 177 writesf~;
#X msg 115 149 start;
#X msg 92 123 stop;
#X obj 92 73 sel 0 1;
#X obj 92 49 r 1-START-MOTHER;
#X msg 147 126 open performance/dry-in.wav;
#X obj 115 99 t b b;
#X obj 61 149 inlet~;
#X connect 1 0 0 0;
#X connect 2 0 0 0;
#X connect 3 0 2 0;
#X connect 3 1 6 0;
#X connect 4 0 3 0;
#X connect 5 0 0 0;
#X connect 6 0 1 0;
#X connect 6 1 5 0;
#X connect 7 0 0 0;
#X restore 423 172 pd record-dryin;
#X obj 493 588 catch~ \$0-OUT;
#X obj 423 199 throw~ \$0-OUT;
#X obj 423 56 adc~ 1;
#X obj 308 327 ctlin 1 1;
#X obj 540 328 ctlin 2 1;
#X obj 771 329 ctlin 3 1;
#X obj 1001 330 ctlin 4 1;
#N canvas 121 159 392 281 record-full 0;
#X obj 92 177 writesf~;
#X msg 115 149 start;
#X msg 92 123 stop;
#X obj 92 73 sel 0 1;
#X obj 92 49 r 1-START-MOTHER;
#X obj 115 99 t b b;
#X obj 61 149 inlet~;
#X msg 147 126 open performance/full.wav;
#X connect 1 0 0 0;
#X connect 2 0 0 0;
#X connect 3 0 2 0;
#X connect 3 1 5 0;
#X connect 4 0 3 0;
#X connect 5 0 1 0;
#X connect 5 1 7 0;
#X connect 6 0 0 0;
#X connect 7 0 0 0;
#X restore 548 618 pd record-full;
#X connect 0 0 1 0;
#X connect 2 0 13 0;
#X connect 2 0 24 0;
#X connect 2 0 35 0;
#X connect 3 0 13 1;
#X connect 3 0 25 0;
#X connect 3 0 35 0;
#X connect 4 0 13 1;
#X connect 4 0 26 0;
#X connect 4 0 35 0;
#X connect 5 0 14 0;
#X connect 6 0 2 0;
#X connect 7 0 3 0;
#X connect 8 0 4 0;
#X connect 9 0 14 1;
#X connect 10 0 2 1;
#X connect 11 0 3 1;
#X connect 12 0 4 1;
#X connect 14 0 13 0;
#X connect 14 0 23 0;
#X connect 14 0 35 0;
#X connect 28 0 13 0;
#X connect 28 0 13 1;
#X connect 28 0 35 0;
#X connect 30 0 15 0;
#X connect 30 0 29 0;
#X connect 30 0 27 0;
#X connect 31 0 9 0;
#X connect 32 0 10 0;
#X connect 33 0 11 0;
#X connect 34 0 12 0;
