#N canvas 318 38 1194 858 12;
#X obj 116 55 loop_mother 1;
#X obj 116 225 dac~ 1;
#X obj 332 492 loop_track 2 1;
#X obj 563 491 loop_track 3 1;
#X obj 793 493 loop_track 4 1;
#X obj 100 461 r~ \$0-signal-in;
#X obj 332 465 r~ \$0-signal-in;
#X obj 563 465 r~ \$0-signal-in;
#X obj 793 465 r~ \$0-signal-in;
#X obj 293 422 t b;
#X obj 523 460 t b;
#X obj 756 466 t b;
#X obj 986 467 t b;
#X obj 478 733 dac~;
#X obj 100 490 loop_track 5 1;
#X obj 423 147 s~ \$0-signal-in;
#X text 779 53 DOCS;
#X text 627 78 - a loop mother is necessary to control the loop tracks;
#X text 627 100 - loop mother determines base BPM and number of beats per loop;
#X text 628 134 - a loop can record any integer subdivision \, starting from the first beat;
#X text 628 170 - tempo can be changed dynamically;
#X text 631 189 - loop tracks with the same mother can sample different sources;
#X text 632 222 - more than one mother can be linked with eg. clock dividers...;
#N canvas 92 130 401 260 record-loop-1 0;
#X obj 88 178 writesf~;
#X msg 111 150 start;
#X msg 88 124 stop;
#X obj 88 74 sel 0 1;
#X obj 88 50 r 1-START-MOTHER;
#X obj 111 100 t b b;
#X msg 143 127 open performance/loop-1.wav;
#X obj 52 150 inlet~;
#X connect 1 0 0 0;
#X connect 2 0 0 0;
#X connect 3 0 2 0;
#X connect 3 1 5 0;
#X connect 4 0 3 0;
#X connect 5 0 1 0;
#X connect 5 1 6 0;
#X connect 6 0 0 0;
#X connect 7 0 0 0;
#X restore 100 629 pd record-loop-1;
#N canvas 92 130 401 260 record-loop-2 0;
#X obj 88 178 writesf~;
#X msg 111 150 start;
#X msg 88 124 stop;
#X obj 88 74 sel 0 1;
#X obj 88 50 r 1-START-MOTHER;
#X obj 111 100 t b b;
#X obj 52 150 inlet~;
#X msg 143 127 open performance/loop-2.wav;
#X connect 1 0 0 0;
#X connect 2 0 0 0;
#X connect 3 0 2 0;
#X connect 3 1 5 0;
#X connect 4 0 3 0;
#X connect 5 0 1 0;
#X connect 5 1 7 0;
#X connect 6 0 0 0;
#X connect 7 0 0 0;
#X restore 332 628 pd record-loop-2;
#N canvas 92 130 401 260 record-loop-3 0;
#X obj 88 178 writesf~;
#X msg 111 150 start;
#X msg 88 124 stop;
#X obj 88 74 sel 0 1;
#X obj 88 50 r 1-START-MOTHER;
#X obj 111 100 t b b;
#X obj 52 150 inlet~;
#X msg 143 127 open performance/loop-3.wav;
#X connect 1 0 0 0;
#X connect 2 0 0 0;
#X connect 3 0 2 0;
#X connect 3 1 5 0;
#X connect 4 0 3 0;
#X connect 5 0 1 0;
#X connect 5 1 7 0;
#X connect 6 0 0 0;
#X connect 7 0 0 0;
#X restore 563 626 pd record-loop-3;
#N canvas 92 130 401 260 record-loop-4 0;
#X obj 88 178 writesf~;
#X msg 111 150 start;
#X msg 88 124 stop;
#X obj 88 74 sel 0 1;
#X obj 88 50 r 1-START-MOTHER;
#X obj 111 100 t b b;
#X obj 52 150 inlet~;
#X msg 143 127 open performance/loop-4.wav;
#X connect 1 0 0 0;
#X connect 2 0 0 0;
#X connect 3 0 2 0;
#X connect 3 1 5 0;
#X connect 4 0 3 0;
#X connect 5 0 1 0;
#X connect 5 1 7 0;
#X connect 6 0 0 0;
#X connect 7 0 0 0;
#X restore 793 627 pd record-loop-4;
#N canvas 121 159 392 281 record-dryin 0;
#X obj 92 177 writesf~;
#X msg 115 149 start;
#X msg 92 123 stop;
#X obj 92 73 sel 0 1;
#X obj 92 49 r 1-START-MOTHER;
#X msg 147 126 open performance/dry-in.wav;
#X obj 115 99 t b b;
#X obj 61 149 inlet~;
#X connect 1 0 0 0;
#X connect 2 0 0 0;
#X connect 3 0 2 0;
#X connect 3 1 6 0;
#X connect 4 0 3 0;
#X connect 5 0 0 0;
#X connect 6 0 1 0;
#X connect 6 1 5 0;
#X connect 7 0 0 0;
#X restore 423 172 pd record-dryin;
#X obj 559 677 catch~ \$0-OUT;
#X obj 423 199 throw~ \$0-OUT;
#X obj 423 56 adc~ 1;
#N canvas 121 159 392 281 record-full 0;
#X obj 92 177 writesf~;
#X msg 115 149 start;
#X msg 92 123 stop;
#X obj 92 73 sel 0 1;
#X obj 92 49 r 1-START-MOTHER;
#X obj 115 99 t b b;
#X obj 61 149 inlet~;
#X msg 147 126 open performance/full.wav;
#X connect 1 0 0 0;
#X connect 2 0 0 0;
#X connect 3 0 2 0;
#X connect 3 1 5 0;
#X connect 4 0 3 0;
#X connect 5 0 1 0;
#X connect 5 1 7 0;
#X connect 6 0 0 0;
#X connect 7 0 0 0;
#X restore 533 731 pd record-full;
#X obj 292 324 sel 1;
#X obj 519 351 sel 4;
#X obj 761 361 sel 7;
#X obj 950 342 sel 10;
#X obj 522 308 notein 1;
#X obj 293 348 tgl 19 0 empty empty empty 0 -10 0 12 #fcfcfc #000000 #000000 0 1;
#X obj 293 372 sel 1;
#X obj 293 396 bng 19 250 50 0 empty empty empty 0 -10 0 12 #fcfcfc #000000 #000000;
#X obj 520 384 tgl 19 0 empty empty empty 0 -10 0 12 #fcfcfc #000000 #000000 0 1;
#X obj 520 408 sel 1;
#X obj 520 432 bng 19 250 50 0 empty empty empty 0 -10 0 12 #fcfcfc #000000 #000000;
#X obj 757 387 tgl 19 0 empty empty empty 0 -10 0 12 #fcfcfc #000000 #000000 0 1;
#X obj 757 411 sel 1;
#X obj 757 435 bng 19 250 50 0 empty empty empty 0 -10 0 12 #fcfcfc #000000 #000000;
#X obj 957 379 tgl 19 0 empty empty empty 0 -10 0 12 #fcfcfc #000000 #000000 0 1;
#X obj 957 403 sel 1;
#X obj 957 427 bng 19 250 50 0 empty empty empty 0 -10 0 12 #fcfcfc #000000 #000000;
#X obj 476 55 adc~ 2;
#X obj 761 742 ctlin 1 1;
#X obj 761 766 bng 19 250 50 0 empty empty empty 0 -10 0 12 #fcfcfc #000000 #000000;
#X obj 838 766 bng 19 250 50 0 empty empty empty 0 -10 0 12 #fcfcfc #000000 #000000;
#X obj 914 765 bng 19 250 50 0 empty empty empty 0 -10 0 12 #fcfcfc #000000 #000000;
#X obj 991 765 bng 19 250 50 0 empty empty empty 0 -10 0 12 #fcfcfc #000000 #000000;
#X obj 838 742 ctlin 2 1;
#X obj 914 741 ctlin 3 1;
#X obj 991 741 ctlin 4 1;
#X connect 0 0 1 0;
#X connect 2 0 13 0;
#X connect 2 0 24 0;
#X connect 2 0 31 0;
#X connect 3 0 13 1;
#X connect 3 0 25 0;
#X connect 3 0 31 0;
#X connect 3 0 13 0;
#X connect 4 0 13 1;
#X connect 4 0 26 0;
#X connect 4 0 31 0;
#X connect 4 0 13 0;
#X connect 5 0 14 0;
#X connect 6 0 2 0;
#X connect 7 0 3 0;
#X connect 8 0 4 0;
#X connect 14 0 23 0;
#X connect 14 0 31 0;
#X connect 14 0 13 0;
#X connect 28 0 31 0;
#X connect 30 0 15 0;
#X connect 30 0 29 0;
#X connect 30 0 27 0;
#X connect 32 0 37 0;
#X connect 33 0 40 0;
#X connect 34 0 43 0;
#X connect 35 0 46 0;
#X connect 36 0 33 0;
#X connect 36 0 35 0;
#X connect 36 0 34 0;
#X connect 36 0 32 0;
#X connect 37 0 38 0;
#X connect 38 0 39 0;
#X connect 39 0 9 0;
#X connect 40 0 41 0;
#X connect 41 0 42 0;
#X connect 42 0 10 0;
#X connect 43 0 44 0;
#X connect 44 0 45 0;
#X connect 45 0 11 0;
#X connect 46 0 47 0;
#X connect 47 0 48 0;
#X connect 48 0 12 0;
#X connect 49 0 15 0;
#X connect 49 0 27 0;
#X connect 49 0 29 0;
#X connect 50 0 51 0;
#X connect 51 0 14 1;
#X connect 52 0 2 1;
#X connect 53 0 3 1;
#X connect 54 0 4 1;
#X connect 55 0 52 0;
#X connect 56 0 53 0;
#X connect 57 0 54 0;
