#N canvas 205 346 1206 481 12;
#X obj 102 117 cnv 19 140 65 empty empty empty 20 12 0 12 #c7c6ff #404040 0;
#X obj 112 147 hsl 120 15 0 1 0 0 empty \$0-del-feedback-ctrl-rcv del-feedback 10 8 0 12 #fcfcfc #000000 #000000 0 1;
#X obj 112 132 hsl 120 15 0 1 0 0 empty \$0-del-time-ctrl-rcv del-time 10 8 0 12 #fcfcfc #000000 #000000 0 1;
#X obj 260 56 inlet~;
#X obj 432 64 inlet~;
#X obj 112 162 hsl 120 15 0 0.5 0 0 empty \$0-rev-amount-ctrl-rcv rev-amount 10 8 0 12 #fcfcfc #000000 #000000 0 1;
#X obj 272 199 +~;
#X obj 441 201 +~;
#X obj 302 199 *~ 0.3;
#X obj 488 200 *~ 0.3;
#X obj 320 106 * 300;
#X obj 320 130 + 70;
#X obj 216 317 vstplugin~;
#N canvas 101 355 513 414 message-out 0;
#X obj 20 17 inlet;
#X obj 20 63 s \$0-program-data;
#X obj 20 40 route program_data bank_data, f 39;
#X obj 135 63 s \$0-bank-data;
#X obj 278 135 print;
#X obj 278 114 spigot 1;
#X obj 337 114 tgl 15 0 empty empty empty 17 7 0 10 #fcfcfc #000000 #000000 0 1;
#X text 358 113 print messages;
#X obj 251 86 s \$0-out;
#X obj 251 63 t a a;
#X msg 28 178 param_automated <index> <value>;
#X msg 28 204 latency <numsamples>;
#X msg 30 257 midi <bytes...>;
#X msg 29 284 sysex <bytes...>;
#X text 233 172 a parameter has been changed in the GUI (or by changing a linked parameter)., f 40;
#X text 162 204 the plugin's internal processing latency has changed;
#X text 139 257 a MIDI message sent by the plugin;
#X text 139 284 a SysEx message sent by the plugin;
#X text 28 153 events:;
#X text 163 222 NOTE: the value includes the additional latency caused by multithreading (see the "-t" flag for "open"), f 55;
#X msg 29 337 crash;
#X text 312 85 goes to vstpresetbrowser;
#X text 23 87 see [pd preset];
#X text 83 338 the plugin subprocess has crashed.;
#X text 84 356 This is only sent for bridged or sandboxed plugins \, because normal plugins would simply crash Pd., f 52;
#X msg 29 311 update;
#X text 87 312 multiple parameters have changed internally;
#X connect 0 0 2 0;
#X connect 2 0 1 0;
#X connect 2 1 3 0;
#X connect 2 2 9 0;
#X connect 5 0 4 0;
#X connect 6 0 5 1;
#X connect 9 0 8 0;
#X connect 9 1 5 0;
#X restore 283 343 pd message-out;
#X msg 86 317 param_list;
#X obj 86 291 r \$0-rev-msg;
#X text 188 273 VALHALLA SUPERMASSIVE REVERB PLUGIN;
#X obj 198 395 outlet~;
#X obj 260 395 outlet~;
#X msg 812 159 open -e ValhallaSupermassive;
#X obj 812 91 loadbang;
#X obj 724 318 s \$0-rev-msg;
#X msg 738 244 preset_list;
#X text 830 245 find out path of presets;
#X text 921 268 save current settings as preset;
#X msg 738 294 param_list;
#X text 826 294 print list of plugin parameters;
#X msg 738 269 preset_save <Clicks> 0;
#X obj 812 136 del 5;
#X obj 723 136 del 10;
#X msg 723 187 program_read /Users/vincemad/Library/Audio/Presets/Valhalla\\\ DSP\\\,\\\ LLC/ValhallaSupermassive/_Clicks_.fxp, f 63;
#X msg 109 196 param_set 0 \$1;
#X obj 109 222 s \$0-rev-msg;
#X obj 302 172 delread~ \$0-\$1-del-R 160;
#X obj 282 230 delwrite~ \$0-\$1-del-R 2000;
#X obj 475 229 delwrite~ \$0-\$1-del-L 2000;
#X obj 488 173 delread~ \$0-\$1-del-L 160;
#X obj 493 289 loadbang;
#X msg 493 313 0.6;
#X obj 493 337 s \$0-del-time-ctrl-rcv;
#X obj 493 386 s \$0-del-feedback-ctrl-rcv;
#X obj 494 436 s \$0-rev-amount-ctrl-rcv;
#X msg 494 412 0.2;
#X msg 493 362 0.3;
#X connect 1 0 8 1;
#X connect 1 0 9 1;
#X connect 2 0 10 0;
#X connect 3 0 6 0;
#X connect 4 0 7 0;
#X connect 5 0 31 0;
#X connect 6 0 12 0;
#X connect 6 0 34 0;
#X connect 7 0 12 1;
#X connect 7 0 35 0;
#X connect 8 0 6 1;
#X connect 9 0 7 1;
#X connect 10 0 11 0;
#X connect 11 0 33 0;
#X connect 11 0 36 0;
#X connect 12 0 17 0;
#X connect 12 1 18 0;
#X connect 12 2 13 0;
#X connect 14 0 12 0;
#X connect 15 0 12 0;
#X connect 19 0 21 0;
#X connect 20 0 28 0;
#X connect 20 0 29 0;
#X connect 22 0 21 0;
#X connect 25 0 21 0;
#X connect 27 0 21 0;
#X connect 28 0 19 0;
#X connect 29 0 30 0;
#X connect 30 0 21 0;
#X connect 31 0 32 0;
#X connect 33 0 8 0;
#X connect 36 0 9 0;
#X connect 37 0 38 0;
#X connect 37 0 43 0;
#X connect 37 0 42 0;
#X connect 38 0 39 0;
#X connect 42 0 41 0;
#X connect 43 0 40 0;
#X coords 0 -1 1 1 145 85 1 100 100;
