#N canvas 1550 18 1512 916 12;
#X obj 181 157 f \$3;
#X obj 106 339 vline~;
#X msg 106 310 0 \, 1 \$1 0;
#X obj 274 111 / 44.1;
#X floatatom 274 83 5 0 0 0 - - - 0;
#X floatatom 274 135 7 0 0 0 - - - 0;
#X obj 106 287 / 44.1;
#X obj 106 364 *~;
#X obj 181 234 f;
#X obj 181 208 t b f;
#X msg 168 339 0;
#X msg 227 160 0;
#X obj 106 795 outlet~;
#X obj 274 186 line, f 9;
#X floatatom 274 210 10 0 0 0 - - - 0;
#X obj 274 236 > 0.98;
#X obj 274 260 sel 1;
#X obj 274 284 bng 19 250 50 0 empty empty empty 0 -10 0 12 #fcfcfc #000000 #000000;
#X msg 274 160 0 \, 1 \$1;
#X floatatom 181 181 5 0 0 0 - - - 0;
#X obj 106 395 tabread4~ \$2-\$1;
#X obj 181 101 bng 19 250 50 0 empty empty empty 0 -10 0 12 #fcfcfc #000000 #000000;
#X obj 181 125 t b b b;
#X obj 181 72 r \$4-START;
#X obj 140 486 line~;
#X obj 325 236 < 0.02;
#X obj 325 260 sel 1;
#X text 177 32 LOOP PLAYBACK;
#X msg 140 455 0 200;
#X msg 192 455 1 200;
#X text 107 258 playback;
#X text 271 58 playhead;
#X text 1285 92 array where the loop is stored;
#X text 1283 135 array that stores the sum of all other arrays;
#X obj 1277 114 array define \$2-\$1 \$3;
#X msg 1277 70 const 0;
#X obj 1277 45 loadbang;
#X obj 666 667 until;
#X obj 666 691 f;
#X msg 715 667 0;
#X obj 701 691 + 1;
#X obj 779 718 symbol \$2;
#X obj 705 743 list append;
#X obj 666 557 bng 19 250 50 0 empty empty empty 0 -10 0 12 #fcfcfc #000000 #000000;
#X msg 705 767 symbol \$2-\$1;
#X obj 666 716 sel \$1;
#X obj 1277 155 array define \$2-\$1.sum \$3;
#X obj 666 52 inlet;
#X obj 705 508 del 10;
#X obj 1276 249 clone 2 fluid.multiarray \$2-\$1.loudness, f 25;
#X obj 1276 330 clone 12 fluid.multiarray \$2-\$1.chroma, f 31;
#X obj 1276 222 array define \$2-\$1.onsets-0;
#X text 674 537 COMPUTE SUM OF OTHER LOOPS IN LOCAL ARRAY;
#X obj 1276 291 clone 7 fluid.multiarray \$2-\$1.spectralshape, f 31;
#X obj 706 256 t b b b;
#X msg 737 819 src1 \$1;
#X obj 705 793 t b a;
#X obj 705 847 tab_add \$0-loops-0 \$2-\$1.sum \$2-\$1.sum;
#X obj 1156 174 symbol \$2;
#X obj 1082 199 list append;
#X msg 1082 226 \; \$2-\$1 const 0;
#X obj 1082 173 f \$1;
#X obj 1082 148 t b b;
#X obj 760 396 symbol \$2;
#X obj 686 421 list append;
#X obj 686 395 f \$1;
#X obj 686 370 t b b;
#X msg 686 448 \; \$2-\$1.sum const 0;
#X text 721 52 commands;
#X text 1289 194 DEFINE DESCRIPTORS ARRAY;
#X text 1352 64 DEFINE SOUND ARRAYS;
#X obj 706 230 spigot;
#X obj 745 203 tgl 19 0 empty empty empty 0 -10 0 12 #fcfcfc #000000 #000000 0 1;
#X msg 779 230 0;
#X msg 745 179 1;
#X obj 1082 123 spigot;
#X obj 1121 98 tgl 19 0 empty empty empty 0 -10 0 12 #fcfcfc #000000 #000000 0 1;
#X msg 1149 99 0;
#X msg 1121 74 1;
#X obj 666 107 t b b b b;
#X text 750 108 make changes to the bar at the end of loop;
#X obj 1276 371 clone 40 fluid.multiarray \$2-\$1.melbands, f 27;
#X obj 666 639 f;
#X obj 684 612 r \$4-N_LOOPS;
#X text 697 639 num of loops;
#X text 693 557 get all loops besides this one;
#X obj 124 425 tabread4~ \$4-crown;
#X obj 106 455 *~;
#X obj 106 562 hip~ 5;
#X obj 309 819 writesf~;
#X msg 309 791 start;
#X msg 355 715 stop;
#X obj 309 716 t b b;
#X obj 309 689 sel 1 0;
#X obj 309 665 r \$4-RECORD-PERFORMANCE;
#X obj 341 742 f \$1;
#X text 341 637 RECORDING;
#X obj 466 373 sel 1 0;
#X obj 489 398 del 10;
#X floatatom 213 737 5 0 0 0 - - - 0;
#X obj 145 689 * -1;
#X obj 145 713 + 1;
#X floatatom 145 737 5 0 0 0 - - - 0;
#X obj 174 765 *~ 0.5;
#X obj 106 765 *~ 0.5;
#X obj 213 665 loadbang;
#X obj 213 689 random 1000;
#X obj 213 713 / 1000;
#X obj 174 795 outlet~;
#X obj 155 532 r \$4-vol-loop-\$1;
#X obj 106 534 *~ 1;
#X obj 106 510 *~ 1;
#X obj 106 486 *~;
#X obj 666 581 t b b b b, f 11;
#X text 211 642 STEREO PAN;
#X obj 666 78 route update loop drop;
#X text 471 323 USER-SET DROP;
#X text 158 514 USER-SET VOLUME;
#X text 777 157 communicate this to python, f 27;
#X obj 1075 435 array size \$2-\$1;
#X obj 1075 460 array size \$2-\$1.sum;
#X obj 1075 408 r \$4-buffersize;
#X obj 779 206 s \$4-loop-active-\$1-rcv;
#X msg 779 179 0;
#X obj 466 349 r \$4-loop-active-\$1-snd;
#X obj 213 603 r \$4-pan-loop-\$1;
#N canvas 63 101 1118 567 sequence-analysis-and-send 0;
#X obj 136 440 fluid.bufloudness -source \$2-\$1.sum -features \$2-\$1.loudness, f 36;
#X text 244 510 OSC address: features/<numloop>/<featurename>-<numfeature>;
#X obj 139 175 fluid.bufchroma 12 -source \$2-\$1.sum -features \$2-\$1.chroma, f 39;
#X text 202 76 PERFORM ANALYSIS OVER SUM OF OTHER LOOPS AND SEND;
#X obj 138 309 fluid.bufspectralshape -source \$2-\$1.sum -features \$2-\$1.spectralshape -numchans 1;
#X obj 439 406 fluid.bufmelbands 40 -source \$2-\$1.sum -features \$2-\$1.melbands -minfreq 20 -maxfreq 20000 -numchans 1, f 44;
#X obj 139 98 bng 19 250 50 0 empty empty empty 0 -10 0 12 #fcfcfc #000000 #000000;
#X obj 439 459 OSCsend \$2-\$1.melbands 40 melbands \$1;
#X obj 440 224 OSCsend \$2-\$1.onsets 1 onsets \$1;
#X obj 138 348 OSCsend \$2-\$1.spectralshape 7 spectralshape \$1;
#X obj 139 215 OSCsend \$2-\$1.chroma 12 chroma \$1;
#X obj 136 483 OSCsend \$2-\$1.loudness 2 loudness \$1;
#X obj 139 242 s \$4-SEND-OSC;
#X obj 138 375 s \$4-SEND-OSC;
#X obj 136 510 s \$4-SEND-OSC;
#X obj 440 249 s \$4-SEND-OSC;
#X obj 439 486 s \$4-SEND-OSC;
#X obj 139 74 del 100;
#X obj 55 53 loadbang;
#X obj 55 101 + 100;
#X obj 55 77 random 600;
#X obj 139 151 del 120;
#X obj 54 127 loadbang;
#X obj 54 151 random 600;
#X obj 54 175 + 120;
#X obj 440 154 del 120;
#X obj 499 105 loadbang;
#X obj 499 129 random 600;
#X obj 499 153 + 120;
#X obj 138 283 del 120;
#X obj 57 261 loadbang;
#X obj 57 285 random 600;
#X obj 57 309 + 120;
#X obj 136 413 del 120;
#X obj 56 390 loadbang;
#X obj 56 414 random 600;
#X obj 56 438 + 120;
#X obj 439 380 del 120;
#X obj 501 330 loadbang;
#X obj 501 354 random 600;
#X obj 501 378 + 120;
#X obj 139 43 inlet;
#X obj 588 352 r \$0-fftsize;
#X obj 587 376 r \$0-hopsize;
#X obj 583 130 r \$0-fftsize;
#X obj 582 154 r \$0-hopsize;
#X obj 290 124 r \$0-fftsize;
#X obj 289 148 r \$0-hopsize;
#X obj 247 253 r \$0-fftsize;
#X obj 246 277 r \$0-hopsize;
#X obj 244 385 r \$0-fftsize;
#X obj 243 409 r \$0-hopsize;
#X obj 440 183 fluid.bufonsetslice -source \$2-\$1.sum -indices \$2-\$1.onsets -metric 0 -threshold 0.65, f 46;
#X obj 770 384 del 100;
#X obj 831 361 r \$0-fftsize;
#X obj 830 385 r \$0-hopsize;
#X obj 770 479 s \$0-SEND-OSC;
#X obj 139 124 t b b b b b b, f 19;
#X obj 770 452 OSCsend \$2-\$1.pitch 2 pitch \$1;
#X obj 770 413 fluid.bufpitch -source \$2-\$1.sum -features \$2-\$1.pitch, f 39;
#X connect 0 0 11 0;
#X connect 2 0 10 0;
#X connect 4 0 9 0;
#X connect 5 0 7 0;
#X connect 6 0 57 0;
#X connect 7 0 16 0;
#X connect 8 0 15 0;
#X connect 9 0 13 0;
#X connect 10 0 12 0;
#X connect 11 0 14 0;
#X connect 17 0 6 0;
#X connect 18 0 20 0;
#X connect 19 0 17 1;
#X connect 20 0 19 0;
#X connect 21 0 2 0;
#X connect 22 0 23 0;
#X connect 23 0 24 0;
#X connect 24 0 21 1;
#X connect 25 0 52 0;
#X connect 26 0 27 0;
#X connect 27 0 28 0;
#X connect 28 0 25 1;
#X connect 29 0 4 0;
#X connect 30 0 31 0;
#X connect 31 0 32 0;
#X connect 32 0 29 1;
#X connect 33 0 0 0;
#X connect 34 0 35 0;
#X connect 35 0 36 0;
#X connect 36 0 33 1;
#X connect 37 0 5 0;
#X connect 38 0 39 0;
#X connect 39 0 40 0;
#X connect 40 0 37 1;
#X connect 41 0 17 0;
#X connect 42 0 5 0;
#X connect 43 0 5 0;
#X connect 44 0 52 0;
#X connect 45 0 52 0;
#X connect 46 0 2 0;
#X connect 47 0 2 0;
#X connect 48 0 4 0;
#X connect 49 0 4 0;
#X connect 50 0 0 0;
#X connect 51 0 0 0;
#X connect 52 0 8 0;
#X connect 53 0 59 0;
#X connect 54 0 59 0;
#X connect 55 0 59 0;
#X connect 57 0 21 0;
#X connect 57 1 29 0;
#X connect 57 2 33 0;
#X connect 57 3 37 0;
#X connect 57 4 25 0;
#X connect 57 5 53 0;
#X connect 58 0 56 0;
#X connect 59 0 58 0;
#X restore 758 582 pd sequence-analysis-and-send;
#X obj 1040 415 f;
#X obj 1040 439 /;
#X floatatom 1078 530 7 0 0 0 - - - 0;
#X obj 998 464 until;
#X obj 998 488 f;
#X obj 998 512 *;
#X obj 1035 487 + 1;
#X obj 998 536 t b f;
#X obj 998 586 array get \$4-sequence;
#X obj 998 611 array set \$2-\$1;
#X floatatom 998 359 5 0 0 0 - - - 0;
#X obj 998 333 f;
#X obj 984 304 t b f;
#X obj 1312 536 r \$0-FFT-buffersize;
#X obj 1277 411 clone 2 fluid.multiarray \$2-\$1.pitch, f 27;
#X obj 1078 553 t f f;
#X obj 998 384 t f b b f;
#X msg 962 487 0;
#X obj 532 158 print;
#X msg 986 260 1;
#X msg 341 766 open recording/loop-\$1.wav;
#X connect 0 0 19 0;
#X connect 1 0 7 0;
#X connect 2 0 1 0;
#X connect 3 0 5 0;
#X connect 4 0 3 0;
#X connect 5 0 18 0;
#X connect 6 0 2 0;
#X connect 7 0 20 0;
#X connect 7 0 86 0;
#X connect 8 0 6 0;
#X connect 8 0 7 1;
#X connect 8 0 4 0;
#X connect 9 0 8 0;
#X connect 9 1 8 1;
#X connect 10 0 1 0;
#X connect 11 0 13 0;
#X connect 13 0 14 0;
#X connect 14 0 15 0;
#X connect 14 0 25 0;
#X connect 15 0 16 0;
#X connect 16 0 17 0;
#X connect 16 0 28 0;
#X connect 17 0 8 0;
#X connect 18 0 13 0;
#X connect 19 0 9 0;
#X connect 20 0 87 0;
#X connect 21 0 22 0;
#X connect 22 0 0 0;
#X connect 22 1 10 0;
#X connect 22 2 11 0;
#X connect 23 0 21 0;
#X connect 24 0 112 1;
#X connect 25 0 26 0;
#X connect 26 0 29 0;
#X connect 28 0 24 0;
#X connect 29 0 24 0;
#X connect 35 0 34 0;
#X connect 35 0 46 0;
#X connect 36 0 35 0;
#X connect 37 0 38 0;
#X connect 38 0 40 0;
#X connect 38 0 45 0;
#X connect 39 0 38 1;
#X connect 40 0 38 1;
#X connect 41 0 42 1;
#X connect 42 0 44 0;
#X connect 43 0 113 0;
#X connect 44 0 56 0;
#X connect 45 1 42 0;
#X connect 47 0 115 0;
#X connect 47 0 145 0;
#X connect 48 0 43 0;
#X connect 54 0 48 0;
#X connect 54 1 138 0;
#X connect 54 2 66 0;
#X connect 55 0 57 0;
#X connect 56 0 57 0;
#X connect 56 1 55 0;
#X connect 58 0 59 1;
#X connect 59 0 60 0;
#X connect 61 0 59 0;
#X connect 62 0 61 0;
#X connect 62 1 58 0;
#X connect 63 0 64 1;
#X connect 64 0 67 0;
#X connect 65 0 64 0;
#X connect 66 0 65 0;
#X connect 66 1 63 0;
#X connect 71 0 73 0;
#X connect 71 0 54 0;
#X connect 72 0 71 1;
#X connect 73 0 72 0;
#X connect 74 0 72 0;
#X connect 74 0 122 0;
#X connect 75 0 77 0;
#X connect 75 0 62 0;
#X connect 76 0 75 1;
#X connect 77 0 76 0;
#X connect 78 0 76 0;
#X connect 79 0 43 0;
#X connect 79 1 66 0;
#X connect 79 2 71 0;
#X connect 79 3 75 0;
#X connect 82 0 37 0;
#X connect 83 0 82 1;
#X connect 86 0 87 1;
#X connect 87 0 112 0;
#X connect 88 0 89 0;
#X connect 88 0 104 0;
#X connect 88 0 103 0;
#X connect 90 0 89 0;
#X connect 91 0 89 0;
#X connect 92 0 90 0;
#X connect 92 1 95 0;
#X connect 93 0 92 0;
#X connect 93 1 91 0;
#X connect 94 0 93 0;
#X connect 95 0 147 0;
#X connect 97 1 98 0;
#X connect 98 0 75 0;
#X connect 99 0 100 0;
#X connect 99 0 103 1;
#X connect 100 0 101 0;
#X connect 101 0 102 0;
#X connect 102 0 104 1;
#X connect 103 0 108 0;
#X connect 104 0 12 0;
#X connect 105 0 106 0;
#X connect 106 0 107 0;
#X connect 107 0 99 0;
#X connect 109 0 110 1;
#X connect 110 0 88 0;
#X connect 111 0 110 0;
#X connect 112 0 111 0;
#X connect 113 0 82 0;
#X connect 113 1 41 0;
#X connect 113 2 39 0;
#X connect 113 3 126 0;
#X connect 115 0 79 0;
#X connect 115 1 146 0;
#X connect 115 2 78 0;
#X connect 115 2 123 0;
#X connect 121 0 119 0;
#X connect 121 0 120 0;
#X connect 121 0 127 1;
#X connect 123 0 122 0;
#X connect 124 0 97 0;
#X connect 124 0 111 1;
#X connect 125 0 99 0;
#X connect 127 0 128 0;
#X connect 128 0 129 0;
#X connect 129 0 142 0;
#X connect 130 0 131 0;
#X connect 131 0 132 0;
#X connect 131 0 133 0;
#X connect 132 0 134 0;
#X connect 133 0 131 1;
#X connect 134 0 135 0;
#X connect 134 1 136 1;
#X connect 135 0 136 0;
#X connect 137 0 143 0;
#X connect 138 0 137 0;
#X connect 139 0 74 0;
#X connect 139 1 138 1;
#X connect 142 0 132 1;
#X connect 142 1 135 1;
#X connect 143 0 130 0;
#X connect 143 1 144 0;
#X connect 143 2 127 0;
#X connect 143 3 128 1;
#X connect 144 0 131 1;
#X connect 146 0 139 0;
#X connect 147 0 89 0;
