#N canvas 63 101 918 564 12;
#X obj 194 73 tgl 19 0 empty empty empty 0 -10 0 12 #fcfcfc #000000 #000000 0 1;
#X obj 194 97 metro 100;
#X obj 194 121 bng 19 250 50 0 empty empty empty 0 -10 0 12 #fcfcfc #000000 #000000;
#X obj 406 403 loop_track 2;
#X obj 593 432 loop_track 3;
#X obj 523 132 osc~ 440;
#X floatatom 65 304 5 0 0 1 BPM - - 0;
#X obj 65 355 * 44.1;
#X floatatom 65 379 6 0 0 0 - - - 0;
#X floatatom 47 482 6 0 0 1 bar-num-samples - - 0;
#X msg 65 278 120;
#X text 115 355 number of samples for one beat;
#N canvas 295 333 182 274 bpm2ms 0;
#X obj 56 69 / 60;
#X obj 56 93 t b f;
#X obj 56 142 /;
#X msg 56 117 1;
#X obj 56 166 * 1000;
#X obj 56 42 inlet;
#X obj 56 190 outlet;
#X connect 0 0 1 0;
#X connect 1 0 3 0;
#X connect 1 1 2 1;
#X connect 2 0 4 0;
#X connect 3 0 2 0;
#X connect 4 0 6 0;
#X connect 5 0 0 0;
#X restore 65 329 pd bpm2ms;
#X obj 47 454 * 4;
#X obj 65 254 loadbang;
#X floatatom 112 454 5 0 0 0 - - - 0;
#X obj 47 428 f;
#X obj 80 428 t b f;
#X obj 47 511 s \$0-buffersize;
#X msg 162 430 4;
#X obj 535 324 loop_track 1 \$0;
#X obj 523 58 osc~ 0.1;
#X obj 523 82 *~ 50;
#X obj 523 106 +~ 20;
#X obj 535 351 dac~;
#X text 77 216 LOOP MOTHER;
#X obj 136 255 r \$0-BPM;
#X obj 80 404 r \$0-BEATS_PER_LOOP;
#X obj 640 227 loop_track_live 1 \$0;
#X obj 162 456 s \$0-BEATS_PER_LOOP;
#X obj 708 196 bng 19 250 50 0 empty empty empty 0 -10 0 12 #fcfcfc #000000 #000000;
#X text 700 171 RECORD;
#X text 604 68 AUDIO IN;
#X connect 0 0 1 0;
#X connect 1 0 2 0;
#X connect 2 0 20 2;
#X connect 2 0 28 2;
#X connect 5 0 20 0;
#X connect 5 0 28 0;
#X connect 6 0 12 0;
#X connect 7 0 8 0;
#X connect 8 0 16 1;
#X connect 9 0 18 0;
#X connect 10 0 6 0;
#X connect 12 0 7 0;
#X connect 12 0 1 1;
#X connect 13 0 9 0;
#X connect 14 0 10 0;
#X connect 14 0 19 0;
#X connect 15 0 13 1;
#X connect 16 0 13 0;
#X connect 17 0 16 0;
#X connect 17 1 15 0;
#X connect 19 0 29 0;
#X connect 20 0 24 0;
#X connect 21 0 22 0;
#X connect 22 0 23 0;
#X connect 23 0 5 0;
#X connect 26 0 6 0;
#X connect 27 0 17 0;
#X connect 28 0 24 1;
#X connect 30 0 28 1;
