#N canvas 90 114 1148 714 12;
#X obj 116 55 loop_mother 1;
#X obj 116 225 dac~ 1;
#X obj 347 379 loop_track 2 1;
#X obj 578 378 loop_track 3 1;
#X obj 808 380 loop_track 4 1;
#X obj 115 348 r~ \$0-signal-in;
#X obj 347 352 r~ \$0-signal-in;
#X obj 578 352 r~ \$0-signal-in;
#X obj 808 352 r~ \$0-signal-in;
#X obj 308 327 ctlin 1 17;
#X obj 308 351 t b;
#X obj 540 352 t b;
#X obj 540 328 ctlin 2 17;
#X obj 771 353 t b;
#X obj 1001 354 t b;
#X obj 771 329 ctlin 3 17;
#X obj 1001 330 ctlin 4 17;
#X obj 493 620 dac~;
#X obj 115 377 loop_track 5 1;
#X obj 441 94 adc~ 1;
#X obj 441 120 s~ \$0-signal-in;
#X text 807 26 BUGS:;
#X text 702 52 - ping-pong buffering doesn't work;
#X text 812 87 DOCS;
#X text 660 112 - a loop mother is necessary to control the loop tracks;
#X text 660 134 - loop mother determines base BPM and number of beats per loop;
#X text 661 168 - a loop can record any integer subdivision \, starting from the first beat;
#X text 661 204 - tempo can be changed dynamically;
#X text 664 223 - loop tracks with the same mother can sample different sources;
#X text 665 256 - more than one mother can be linked with eg. clock dividers...;
#X connect 0 0 1 0;
#X connect 2 0 17 0;
#X connect 3 0 17 1;
#X connect 4 0 17 1;
#X connect 5 0 18 0;
#X connect 6 0 2 0;
#X connect 7 0 3 0;
#X connect 8 0 4 0;
#X connect 9 0 10 0;
#X connect 10 0 18 1;
#X connect 11 0 2 1;
#X connect 12 0 11 0;
#X connect 13 0 3 1;
#X connect 14 0 4 1;
#X connect 15 0 13 0;
#X connect 16 0 14 0;
#X connect 18 0 17 0;
#X connect 19 0 20 0;
