#N canvas 228 114 1127 744 12;
#X obj 90 56 loop_mother 1;
#X obj 90 193 dac~ 1;
#X obj 408 72 adc~ 1;
#X obj 325 365 loop_track 2 1;
#X obj 85 363 loop_track 1 1;
#X obj 408 96 *~ 10;
#X obj 556 364 loop_track 3 1;
#X obj 792 364 loop_track 4 1;
#X obj 408 120 s~ \$0-signal-in;
#X obj 85 334 r~ \$0-signal-in;
#X obj 325 338 r~ \$0-signal-in;
#X obj 556 338 r~ \$0-signal-in;
#X obj 792 336 r~ \$0-signal-in;
#X obj 278 313 ctlin 1 17;
#X obj 278 337 t b;
#X obj 518 334 t b;
#X obj 518 310 ctlin 2 17;
#X obj 749 335 t b;
#X obj 985 337 t b;
#X obj 749 311 ctlin 3 17;
#X obj 985 313 ctlin 4 17;
#X obj 470 644 dac~;
#X connect 0 0 1 0;
#X connect 2 0 5 0;
#X connect 3 0 21 0;
#X connect 4 0 21 0;
#X connect 5 0 8 0;
#X connect 6 0 21 1;
#X connect 7 0 21 1;
#X connect 9 0 4 0;
#X connect 10 0 3 0;
#X connect 11 0 6 0;
#X connect 12 0 7 0;
#X connect 13 0 14 0;
#X connect 14 0 4 1;
#X connect 15 0 3 1;
#X connect 16 0 15 0;
#X connect 17 0 6 1;
#X connect 18 0 7 1;
#X connect 19 0 17 0;
#X connect 20 0 18 0;
