#N canvas 1862 6 966 805 12;
#X obj 699 361 tgl 19 0 empty empty empty 0 -10 0 12 #fcfcfc #000000 #000000 0 1;
#X obj 699 385 metro 100;
#X obj 699 409 bng 19 250 50 0 empty empty empty 0 -10 0 12 #fcfcfc #000000 #000000;
#X floatatom 473 134 5 0 0 1 BPM - - 0;
#X obj 473 185 * 44.1;
#X floatatom 473 209 6 0 0 0 - - - 0;
#X floatatom 455 310 6 0 0 1 bar-num-samples - - 0;
#X text 523 185 number of samples for one beat;
#N canvas 295 333 182 274 bpm2ms 0;
#X obj 56 69 / 60;
#X obj 56 93 t b f;
#X obj 56 142 /;
#X msg 56 117 1;
#X obj 56 166 * 1000;
#X obj 56 42 inlet;
#X obj 56 190 outlet;
#X connect 0 0 1 0;
#X connect 1 0 3 0;
#X connect 1 1 2 1;
#X connect 2 0 4 0;
#X connect 3 0 2 0;
#X connect 4 0 6 0;
#X connect 5 0 0 0;
#X restore 473 159 pd bpm2ms;
#X obj 455 284 * 4;
#X floatatom 520 284 5 0 0 0 - - - 0;
#X obj 455 258 f;
#X obj 488 258 t b f;
#X text 480 51 LOOP MOTHER;
#X obj 541 699 *~;
#X obj 626 634 *~;
#X obj 644 611 vline~;
#X obj 626 561 osc~ 440;
#X msg 644 587 0.7 10 \, 0 10 20;
#X obj 699 436 f;
#X obj 747 436 + 1;
#X obj 747 460 % 4;
#X floatatom 699 460 5 0 0 0 - - - 0;
#X obj 564 525 sel 0;
#X obj 491 561 osc~ 880;
#X obj 491 634 *~;
#X obj 509 609 vline~;
#X msg 509 585 0.7 10 \, 0 10 20;
#X text 554 499 METRONOME;
#X floatatom 554 135 5 0 0 1 BEATS\ PER\ LOOP - - 0;
#X obj 578 699 hsl 162 19 0 1 0 0 empty empty empty -2 -10 0 12 #fcfcfc #000000 #000000 0 1;
#X obj 575 671 r \$1-mother-vol;
#X obj 699 335 r \$1-START-MOTHER;
#X obj 121 432 sel 0 1 2 3 4 5 6 7;
#X obj 541 731 outlet~;
#X obj 699 483 s \$1-METRO;
#X obj 783 460 r \$1-BEATS_PER_LOOP;
#X obj 455 336 s \$1-buffersize;
#X obj 488 234 r \$1-BEATS_PER_LOOP;
#X obj 544 85 r \$1-BPM;
#X obj 121 380 r \$1-METRO;
#X obj 121 456 s \$1-beat-0;
#X obj 137 481 s \$1-beat-1;
#X obj 153 507 s \$1-beat-2;
#X obj 169 532 s \$1-beat-3;
#X obj 186 559 s \$1-beat-4;
#X obj 202 584 s \$1-beat-5;
#X obj 218 610 s \$1-beat-6;
#X obj 234 635 s \$1-beat-7;
#X msg 649 411 0;
#X obj 649 385 sel 1;
#X obj 590 110 r \$1-BEATS_PER_LOOP;
#X obj 121 404 % 8;
#X obj 105 123 cnv 19 140 100 empty empty empty 20 12 0 12 #feffc6 #404040 0;
#X msg 126 70 120;
#X obj 126 46 loadbang;
#X msg 172 69 8;
#X obj 115 204 hsl 120 15 0 1 0 0 \$1-mother-vol empty metronome-volume 6 8 0 12 #fcfcfc #000000 #000000 0 1;
#X obj 208 152 tgl 19 0 \$1-START-MOTHER empty START -5 -10 0 12 #ff0400 #000000 #000000 0 1;
#X obj 114 184 bng 15 250 50 0 \$1-beat-0-snd \$1-beat-0 empty 0 -10 0 12 #fcfcfc #000000 #000000;
#X obj 129 184 bng 15 250 50 0 \$1-beat-1-snd \$1-beat-1 empty 0 -10 0 12 #fcfcfc #000000 #000000;
#X obj 144 184 bng 15 250 50 0 \$1-beat-2-snd \$1-beat-2 empty 0 -10 0 12 #fcfcfc #000000 #000000;
#X obj 159 184 bng 15 250 50 0 \$1-beat-3-snd \$1-beat-3 empty 0 -10 0 12 #fcfcfc #000000 #000000;
#X obj 174 184 bng 15 250 50 0 \$1-beat-4-snd \$1-beat-4 empty 0 -10 0 12 #fcfcfc #000000 #000000;
#X obj 189 184 bng 15 250 50 0 \$1-beat-5-snd \$1-beat-5 empty 0 -10 0 12 #fcfcfc #000000 #000000;
#X obj 204 184 bng 15 250 50 0 \$1-beat-6-snd \$1-beat-6 empty 0 -10 0 12 #fcfcfc #000000 #000000;
#X obj 219 184 bng 15 250 50 0 \$1-beat-7-snd \$1-beat-7 empty 0 -10 0 12 #fcfcfc #000000 #000000;
#X floatatom 114 135 5 0 0 1 BPM - \$1-BPM 0;
#X floatatom 114 159 5 0 0 1 BEATS - \$1-BEATS_PER_LOOP 0;
#X connect 0 0 1 0;
#X connect 0 0 50 0;
#X connect 1 0 2 0;
#X connect 2 0 19 0;
#X connect 3 0 8 0;
#X connect 4 0 5 0;
#X connect 5 0 11 1;
#X connect 6 0 37 0;
#X connect 8 0 4 0;
#X connect 8 0 1 1;
#X connect 9 0 6 0;
#X connect 10 0 9 1;
#X connect 11 0 9 0;
#X connect 12 0 11 0;
#X connect 12 1 10 0;
#X connect 14 0 34 0;
#X connect 15 0 14 0;
#X connect 16 0 15 1;
#X connect 17 0 15 0;
#X connect 18 0 16 0;
#X connect 19 0 20 0;
#X connect 19 0 22 0;
#X connect 20 0 21 0;
#X connect 21 0 19 1;
#X connect 22 0 23 0;
#X connect 22 0 35 0;
#X connect 23 0 27 0;
#X connect 23 1 18 0;
#X connect 24 0 25 0;
#X connect 25 0 14 0;
#X connect 26 0 25 1;
#X connect 27 0 26 0;
#X connect 30 0 14 1;
#X connect 31 0 30 0;
#X connect 32 0 0 0;
#X connect 33 0 41 0;
#X connect 33 1 42 0;
#X connect 33 2 43 0;
#X connect 33 3 44 0;
#X connect 33 4 45 0;
#X connect 33 5 46 0;
#X connect 33 6 47 0;
#X connect 33 7 48 0;
#X connect 36 0 21 1;
#X connect 38 0 12 0;
#X connect 39 0 3 0;
#X connect 40 0 52 0;
#X connect 49 0 19 0;
#X connect 50 0 49 0;
#X connect 51 0 29 0;
#X connect 52 0 33 0;
#X connect 54 0 67 0;
#X connect 55 0 54 0;
#X connect 55 0 56 0;
#X connect 56 0 68 0;
#X coords 0 -1 1 1 150 130 1 100 100;
