#N canvas 1629 34 966 805 12;
#X obj 699 361 tgl 19 0 empty empty empty 0 -10 0 12 #fcfcfc #000000 #000000 0 1;
#X obj 699 385 metro 100;
#X obj 699 409 bng 19 250 50 0 empty empty empty 0 -10 0 12 #fcfcfc #000000 #000000;
#X floatatom 542 120 5 0 0 1 BPM - - 0;
#X obj 507 173 * 44.1;
#X floatatom 507 197 6 0 0 0 - - - 0;
#X floatatom 489 298 6 0 0 1 bar-num-samples - - 0;
#X text 557 173 number of samples for one beat;
#N canvas 295 333 182 274 bpm2ms 0;
#X obj 56 69 / 60;
#X obj 56 93 t b f;
#X obj 56 142 /;
#X msg 56 117 1;
#X obj 56 166 * 1000;
#X obj 56 42 inlet;
#X obj 56 190 outlet;
#X connect 0 0 1 0;
#X connect 1 0 3 0;
#X connect 1 1 2 1;
#X connect 2 0 4 0;
#X connect 3 0 2 0;
#X connect 4 0 6 0;
#X connect 5 0 0 0;
#X restore 507 147 pd bpm2ms;
#X obj 489 271 * 4;
#X floatatom 555 272 5 0 0 0 - - - 0;
#X obj 489 245 f;
#X obj 523 245 t b f;
#X text 501 42 LOOP MOTHER;
#X obj 566 691 *~;
#X obj 626 634 *~;
#X obj 644 611 vline~;
#X obj 626 561 osc~ 440;
#X msg 644 587 0.7 10 \, 0 10 20;
#X obj 699 436 f;
#X obj 747 436 + 1;
#X obj 747 460 % 4;
#X floatatom 699 460 5 0 0 0 - - - 0;
#X obj 564 525 sel 0;
#X obj 491 561 osc~ 880;
#X obj 491 634 *~;
#X obj 509 609 vline~;
#X msg 509 585 0.7 10 \, 0 10 20;
#X text 554 499 METRONOME;
#X obj 599 690 r \$1-mother-vol;
#X obj 699 335 r \$1-START-MOTHER;
#X obj 72 334 sel 0 1 2 3 4 5 6 7;
#X obj 566 718 outlet~;
#X obj 699 483 s \$1-METRO;
#X obj 783 460 r \$1-BEATS_PER_LOOP;
#X obj 489 324 s \$1-buffersize;
#X obj 555 221 r \$1-BEATS_PER_LOOP;
#X obj 542 93 r \$1-BPM;
#X obj 72 282 r \$1-METRO;
#X obj 72 358 s \$1-beat-0;
#X obj 88 383 s \$1-beat-1;
#X obj 104 409 s \$1-beat-2;
#X obj 120 434 s \$1-beat-3;
#X obj 137 461 s \$1-beat-4;
#X obj 153 486 s \$1-beat-5;
#X obj 169 512 s \$1-beat-6;
#X obj 185 537 s \$1-beat-7;
#X msg 649 411 0;
#X obj 649 385 sel 1;
#X obj 72 308 % 8;
#X obj 107 123 cnv 19 140 100 empty empty empty 20 12 0 12 #feffc6 #404040 0;
#X obj 117 202 hsl 120 15 0 1 0 0 \$1-mother-vol empty metronome-volume 6 8 0 12 #fcfcfc #000000 #000000 0 1;
#X obj 126 151 tgl 19 0 \$1-START-MOTHER \$1-START-MOTHER-RCV START -5 -10 0 12 #ff0400 #000000 #000000 0 1;
#X obj 116 183 bng 15 250 50 0 \$1-beat-0-snd \$1-beat-0 empty 0 -10 0 12 #fcfcfc #000000 #000000;
#X obj 131 183 bng 15 250 50 0 \$1-beat-1-snd \$1-beat-1 empty 0 -10 0 12 #fcfcfc #000000 #000000;
#X obj 146 183 bng 15 250 50 0 \$1-beat-2-snd \$1-beat-2 empty 0 -10 0 12 #fcfcfc #000000 #000000;
#X obj 161 183 bng 15 250 50 0 \$1-beat-3-snd \$1-beat-3 empty 0 -10 0 12 #fcfcfc #000000 #000000;
#X obj 176 183 bng 15 250 50 0 \$1-beat-4-snd \$1-beat-4 empty 0 -10 0 12 #fcfcfc #000000 #000000;
#X obj 191 183 bng 15 250 50 0 \$1-beat-5-snd \$1-beat-5 empty 0 -10 0 12 #fcfcfc #000000 #000000;
#X obj 206 183 bng 15 250 50 0 \$1-beat-6-snd \$1-beat-6 empty 0 -10 0 12 #fcfcfc #000000 #000000;
#X obj 221 183 bng 15 250 50 0 \$1-beat-7-snd \$1-beat-7 empty 0 -10 0 12 #fcfcfc #000000 #000000;
#X floatatom 166 151 5 0 0 2 BPM \$1-BPM-MOD-RCV \$1-BPM-MOD 0;
#X obj 507 121 f;
#X obj 523 221 f;
#X obj 475 69 r \$1-RESET;
#X obj 475 95 t b b;
#N canvas 295 333 182 274 bpm2ms 0;
#X obj 56 69 / 60;
#X obj 56 93 t b f;
#X obj 56 142 /;
#X msg 56 117 1;
#X obj 56 166 * 1000;
#X obj 56 42 inlet;
#X obj 56 190 outlet;
#X connect 0 0 1 0;
#X connect 1 0 3 0;
#X connect 1 1 2 1;
#X connect 2 0 4 0;
#X connect 3 0 2 0;
#X connect 4 0 6 0;
#X connect 5 0 0 0;
#X restore 775 384 pd bpm2ms;
#X obj 775 360 r \$1-BPM-MOD;
#X obj 332 339 r \$1-BPM;
#X obj 300 312 r \$1-BPM-MOD;
#X obj 300 339 /;
#X obj 300 412 s \$1-playspeed;
#X obj 300 363 * 100;
#X floatatom 300 387 5 0 0 0 - - - 0;
#X obj 582 147 s \$1-BPM-MOD-RCV;
#X obj 666 57 inlet;
#X text 713 56 for dynamic tempo input;
#X obj 251 123 cnv 19 110 100 empty empty empty 20 12 0 12 #ffe3c6 #404040 0;
#X msg 98 633 120;
#X obj 98 604 loadbang;
#X msg 195 633 8;
#X floatatom 262 174 5 0 0 1 BASE\ BPM \$1-BPM-SET \$1-BPM 0;
#X floatatom 262 198 5 0 0 1 BEATS \$1-BEATS_PER_LOOP-SET \$1-BEATS_PER_LOOP-SND 0;
#X text 287 126 SETUP;
#X obj 264 148 bng 19 250 50 0 \$1-RESET empty RESET 30 10 0 12 #ff8300 #000000 #000000;
#X obj 195 658 s \$1-BEATS_PER_LOOP-SET;
#X obj 98 658 s \$1-BPM-SET;
#X obj 305 484 f;
#X obj 305 508 s \$1-BEATS_PER_LOOP;
#X obj 305 457 r \$1-RESET;
#X obj 337 483 r \$1-BEATS_PER_LOOP-SND;
#X obj 196 683 s \$1-BEATS_PER_LOOP;
#X obj 306 557 s \$1-START-MOTHER-RCV;
#X msg 306 532 0, f 4;
#X connect 0 0 1 0;
#X connect 0 0 48 0;
#X connect 1 0 2 0;
#X connect 2 0 19 0;
#X connect 3 0 62 1;
#X connect 4 0 5 0;
#X connect 5 0 11 1;
#X connect 6 0 35 0;
#X connect 8 0 4 0;
#X connect 9 0 6 0;
#X connect 10 0 9 1;
#X connect 11 0 9 0;
#X connect 12 0 11 0;
#X connect 12 1 10 0;
#X connect 14 0 32 0;
#X connect 15 0 14 0;
#X connect 16 0 15 1;
#X connect 17 0 15 0;
#X connect 18 0 16 0;
#X connect 19 0 20 0;
#X connect 19 0 22 0;
#X connect 20 0 21 0;
#X connect 21 0 19 1;
#X connect 22 0 23 0;
#X connect 22 0 33 0;
#X connect 23 0 27 0;
#X connect 23 1 18 0;
#X connect 24 0 25 0;
#X connect 25 0 14 0;
#X connect 26 0 25 1;
#X connect 27 0 26 0;
#X connect 29 0 14 1;
#X connect 30 0 0 0;
#X connect 31 0 39 0;
#X connect 31 1 40 0;
#X connect 31 2 41 0;
#X connect 31 3 42 0;
#X connect 31 4 43 0;
#X connect 31 5 44 0;
#X connect 31 6 45 0;
#X connect 31 7 46 0;
#X connect 34 0 21 1;
#X connect 36 0 63 1;
#X connect 37 0 3 0;
#X connect 38 0 49 0;
#X connect 47 0 19 0;
#X connect 48 0 47 0;
#X connect 49 0 31 0;
#X connect 62 0 8 0;
#X connect 62 0 74 0;
#X connect 63 0 12 0;
#X connect 64 0 65 0;
#X connect 65 0 63 0;
#X connect 65 1 62 0;
#X connect 66 0 1 1;
#X connect 67 0 66 0;
#X connect 68 0 70 1;
#X connect 69 0 70 0;
#X connect 70 0 72 0;
#X connect 72 0 73 0;
#X connect 73 0 71 0;
#X connect 75 0 74 0;
#X connect 78 0 86 0;
#X connect 79 0 78 0;
#X connect 79 0 80 0;
#X connect 80 0 85 0;
#X connect 80 0 91 0;
#X connect 87 0 88 0;
#X connect 89 0 87 0;
#X connect 89 0 93 0;
#X connect 90 0 87 1;
#X connect 93 0 92 0;
#X coords 0 -1 1 1 270 130 1 100 100;
