#N canvas 342 157 1170 648 12;
#X obj 93 61 loop_mother 2;
#X obj 77 388 MAAL_loop_track 0 2;
#X obj 394 383 MAAL_loop_track 1 2;
#X obj 317 297 adc~ 1;
#X obj 697 381 MAAL_loop_track 2 2;
#X obj 77 530 s~ \$0-loop0;
#X obj 697 525 s~ \$0-loop2;
#X obj 394 526 s~ \$0-loop1;
#X obj 655 327 r~ \$0-loop0;
#X obj 505 280 r~ \$0-loop1;
#X obj 327 344 r~ \$0-loop2;
#X connect 1 0 5 0;
#X connect 2 0 7 0;
#X connect 3 0 1 0;
#X connect 3 0 2 0;
#X connect 3 0 4 0;
#X connect 4 0 6 0;
#X connect 8 0 4 1;
#X connect 8 0 2 1;
#X connect 9 0 1 1;
#X connect 9 0 4 1;
#X connect 10 0 1 1;
#X connect 10 0 2 1;
