#N canvas 308 137 903 648 12;
#X obj 322 351 osc~ 220;
#X obj 322 274 osc~ 0.1;
#X obj 322 299 *~ 60;
#X obj 322 324 +~ 30;
#X obj 420 350 osc~ 220;
#X obj 420 273 osc~ 0.1;
#X obj 420 298 *~ 60;
#X obj 420 323 +~ 30;
#X obj 93 61 loop_mother 2;
#X obj 143 397 MAAL_loop_track 0 2;
#X obj 426 397 MAAL_loop_track 1 2;
#X connect 0 0 9 0;
#X connect 0 0 10 1;
#X connect 1 0 2 0;
#X connect 2 0 3 0;
#X connect 3 0 0 0;
#X connect 4 0 9 1;
#X connect 4 0 10 0;
#X connect 5 0 6 0;
#X connect 6 0 7 0;
#X connect 7 0 4 0;
