#N canvas 2040 157 1170 648 12;
#X obj 93 61 loop_mother 2;
#X obj 471 178 MAAL_loop_track 0 2;
#X obj 754 178 MAAL_loop_track 1 2;
#X obj 466 410 s~ LOOP-0;
#X obj 690 430 s~ LOOP-1;
#X obj 1017 150 r~ LOOP-0;
#X obj 734 150 r~ LOOP-1;
#X obj 503 79 adc~ 1;
#X obj 337 498 dac~;
#X obj 343 444 *~;
#X obj 361 411 tgl 19 0 empty empty empty 0 -10 0 12 #fcfcfc #000000 #000000 0 1;
#X obj 455 382 *~ 1.5;
#X obj 645 392 *~ 1.5;
#X connect 1 0 11 0;
#X connect 2 0 12 0;
#X connect 5 0 2 1;
#X connect 6 0 1 1;
#X connect 7 0 1 0;
#X connect 7 0 2 0;
#X connect 7 0 9 0;
#X connect 7 0 1 1;
#X connect 7 0 2 1;
#X connect 9 0 8 0;
#X connect 9 0 8 1;
#X connect 10 0 9 1;
#X connect 11 0 8 0;
#X connect 11 0 3 0;
#X connect 12 0 8 1;
#X connect 12 0 4 0;
