#N canvas 2040 157 1170 648 12;
#X obj 471 145 osc~ 220;
#X obj 471 68 osc~ 0.1;
#X obj 471 93 *~ 60;
#X obj 471 118 +~ 30;
#X obj 754 117 osc~ 220;
#X obj 754 40 osc~ 0.1;
#X obj 754 65 *~ 60;
#X obj 754 90 +~ 30;
#X obj 93 61 loop_mother 2;
#X obj 471 178 MAAL_loop_track 0 2;
#X obj 754 178 MAAL_loop_track 1 2;
#X obj 471 318 s~ LOOP-0;
#X obj 754 318 s~ LOOP-1;
#X obj 1017 150 r~ LOOP-0;
#X obj 734 150 r~ LOOP-1;
#X connect 0 0 9 0;
#X connect 0 0 10 1;
#X connect 1 0 2 0;
#X connect 2 0 3 0;
#X connect 3 0 0 0;
#X connect 4 0 9 1;
#X connect 4 0 10 0;
#X connect 5 0 6 0;
#X connect 6 0 7 0;
#X connect 7 0 4 0;
#X connect 9 0 11 0;
#X connect 10 0 12 0;
#X connect 13 0 10 1;
#X connect 14 0 9 1;
