#N canvas 1 38 1512 916 12;
#X obj 95 150 else/tempo~ -on;
#X obj 95 120 tgl 19 0 empty empty empty 0 -10 0 12 #fcfcfc #000000 #000000 0 1;
#X floatatom 129 124 5 0 0 0 - - - 0;
#X obj 129 52 else/beat~;
#X msg 129 76 \$1 50;
#X obj 129 100 line;
#X obj 95 180 else/trig2bang~;
#X obj 95 212 bng 20 50 50 0 empty empty empty 17 7 0 10 #dcdcdc #000000 #000000;
#X msg 157 444 start 0;
#X msg 232 444 stop;
#X obj 63 437 osc~ 220;
#X obj 401 262 f;
#X obj 452 262 + 1;
#X obj 452 286 % 8;
#X floatatom 401 286 5 0 0 0 - - - 0;
#X msg 419 237 0;
#X obj 419 208 sel 1;
#X obj 401 309 sel 0;
#X obj 401 333 bng 19 250 50 0 empty empty empty 0 -10 0 12 #fcfcfc #000000 #000000;
#X obj 585 60 array define \$0.signal 1e+06;
#X obj 585 91 array define \$0.signal-pingpong 1e+06;
#X obj 157 474 tabwrite~ \$0.signal;
#X obj 452 390 array get \$0.signal;
#X obj 452 415 array set \$0.signal-pingpong;
#X obj 238 681 vline~;
#X msg 238 655 0 \, 1 \$1 0;
#X obj 238 631 / 44.1;
#X text 275 706 playback;
#X obj 238 605 f;
#X obj 238 707 *~;
#X floatatom 399 731 5 0 0 0 - - - 0;
#X obj 238 735 tabread4~ \$0.loop;
#X obj 587 122 array define \$0.loop 1e+06;
#X obj 238 857 dac~;
#X obj 271 790 tabread4~ \$0.window;
#X obj 238 790 *~;
#X obj 725 453 spigot;
#X obj 764 401 tgl 19 0 empty empty empty 0 -10 0 12 #fcfcfc #000000 #000000 0 1;
#X obj 793 401 del 2;
#X msg 793 425 0;
#X obj 764 347 bng 19 250 50 0 empty empty empty 0 -10 0 12 #fcfcfc #000000 #000000;
#X msg 764 372 1;
#X text 792 346 recieve loop decision;
#X obj 725 478 array get \$0.signal-pingpong;
#X obj 725 503 array set \$0.loop;
#X obj 586 154 array define \$0.context 1e+06;
#X obj 586 185 array define \$0.context-pingpong 1e+06;
#X obj 487 477 timer;
#X floatatom 487 501 5 0 0 0 - - - 0;
#X obj 487 524 * 44.1;
#X floatatom 487 548 7 0 0 0 - - - 0;
#X text 548 547 signal length;
#X obj 487 449 t b b;
#X obj 469 601 f;
#X obj 487 571 spigot;
#X obj 469 635 /;
#X obj 469 659 * 100;
#X obj 401 357 t b b b b b b b;
#X obj 63 360 osc~ 0.1;
#X obj 63 384 *~ 220;
#X obj 63 408 +~ 50;
#X obj 399 754 int;
#X obj 238 821 else/stretch.shift~ 20000 100 0 300;
#X obj 271 765 *~ 441;
#X text 321 845 tempo-adaptive playback;
#N canvas 585 623 450 300 window 0;
#N canvas 0 22 450 300 (subpatch) 0;
#X array \$0.window 441 float 0;
#X coords 0 1 440 0 200 140 1 0 0;
#X restore 213 65 graph;
#X obj 73 207 clip~ 0 1;
#X obj 73 132 vline~;
#X msg 73 109 -0.25 \, 0.25 10;
#X obj 73 156 cos~;
#X obj 35 67 bng 15 250 50 0 empty empty empty 17 7 0 10 #fcfcfc #000000 #000000;
#X text 63 67 make crown;
#X obj 73 183 *~ 4;
#X obj 35 36 loadbang;
#X obj 73 242 tabwrite~ \$0.window;
#X connect 1 0 9 0;
#X connect 2 0 4 0;
#X connect 3 0 2 0;
#X connect 4 0 7 0;
#X connect 5 0 3 0;
#X connect 5 0 9 0;
#X connect 7 0 1 0;
#X connect 8 0 5 0;
#X restore 587 219 pd window;
#X text 504 599 save length of original loop for adjusted playback;
#X text 328 103 trigger-based loop playback;
#X text 64 329 signal source;
#X connect 0 0 6 0;
#X connect 1 0 0 0;
#X connect 1 0 16 0;
#X connect 2 0 0 1;
#X connect 3 0 4 0;
#X connect 4 0 5 0;
#X connect 5 0 2 0;
#X connect 6 0 7 0;
#X connect 7 0 11 0;
#X connect 8 0 21 0;
#X connect 9 0 21 0;
#X connect 10 0 21 0;
#X connect 11 0 14 0;
#X connect 11 0 12 0;
#X connect 12 0 13 0;
#X connect 13 0 11 1;
#X connect 14 0 17 0;
#X connect 15 0 11 1;
#X connect 16 0 15 0;
#X connect 17 0 18 0;
#X connect 18 0 57 0;
#X connect 22 0 23 0;
#X connect 24 0 29 0;
#X connect 25 0 24 0;
#X connect 26 0 25 0;
#X connect 28 0 26 0;
#X connect 29 0 31 0;
#X connect 29 0 63 0;
#X connect 30 0 61 0;
#X connect 31 0 35 0;
#X connect 34 0 35 1;
#X connect 35 0 62 0;
#X connect 36 0 38 0;
#X connect 36 0 43 0;
#X connect 37 0 36 1;
#X connect 37 0 54 1;
#X connect 38 0 39 0;
#X connect 39 0 37 0;
#X connect 40 0 41 0;
#X connect 41 0 37 0;
#X connect 43 0 44 0;
#X connect 47 0 48 0;
#X connect 48 0 49 0;
#X connect 49 0 50 0;
#X connect 50 0 54 0;
#X connect 50 0 55 1;
#X connect 52 0 47 0;
#X connect 52 1 47 1;
#X connect 53 0 55 0;
#X connect 54 0 53 1;
#X connect 54 0 28 1;
#X connect 54 0 29 1;
#X connect 55 0 56 0;
#X connect 56 0 30 0;
#X connect 57 0 8 0;
#X connect 57 1 9 0;
#X connect 57 2 28 0;
#X connect 57 3 22 0;
#X connect 57 4 53 0;
#X connect 57 5 52 0;
#X connect 57 6 36 0;
#X connect 58 0 59 0;
#X connect 59 0 60 0;
#X connect 60 0 10 0;
#X connect 61 0 62 2;
#X connect 63 0 34 0;
