#N canvas 1817 -15 1601 863 12;
#X obj 717 381 tgl 19 0 empty empty empty 0 -10 0 12 #fcfcfc #000000 #000000 0 1;
#X obj 717 405 metro 100;
#X obj 717 430 bng 19 250 50 0 empty empty empty 0 -10 0 12 #fcfcfc #000000 #000000;
#X floatatom 542 120 5 0 0 1 BPM - - 0;
#X obj 507 173 * 44.1;
#X floatatom 507 197 6 0 0 0 - - - 0;
#X floatatom 489 298 6 0 0 1 bar-num-samples - - 0;
#X text 557 173 number of samples for one beat;
#N canvas 295 333 182 274 bpm2ms 0;
#X obj 56 69 / 60;
#X obj 56 93 t b f;
#X obj 56 142 /;
#X msg 56 117 1;
#X obj 56 166 * 1000;
#X obj 56 42 inlet;
#X obj 56 190 outlet;
#X connect 0 0 1 0;
#X connect 1 0 3 0;
#X connect 1 1 2 1;
#X connect 2 0 4 0;
#X connect 3 0 2 0;
#X connect 4 0 6 0;
#X connect 5 0 0 0;
#X restore 507 147 pd bpm2ms;
#X obj 489 271 * 4;
#X floatatom 555 272 5 0 0 0 - - - 0;
#X obj 489 245 f;
#X obj 523 245 t b f;
#X text 501 42 LOOP MOTHER;
#X obj 584 725 *~;
#X obj 644 668 *~;
#X obj 662 645 vline~;
#X obj 644 595 osc~ 440;
#X msg 662 621 0.7 10 \, 0 10 20;
#X obj 717 456 f;
#X obj 765 456 + 1;
#X obj 765 480 % 4;
#X floatatom 717 480 5 0 0 0 - - - 0;
#X obj 582 559 sel 0;
#X obj 509 595 osc~ 880;
#X obj 509 668 *~;
#X obj 527 643 vline~;
#X msg 527 619 0.7 10 \, 0 10 20;
#X text 572 533 METRONOME;
#X obj 617 724 r \$1-mother-vol;
#X obj 717 355 r \$1-START-MOTHER;
#X obj 71 370 sel 0 1 2 3 4 5 6 7;
#X obj 584 752 outlet~;
#X obj 717 503 s \$1-METRO;
#X obj 801 480 r \$1-BEATS_PER_LOOP;
#X obj 489 324 s \$1-buffersize;
#X obj 555 221 r \$1-BEATS_PER_LOOP;
#X obj 542 93 r \$1-BPM;
#X obj 71 318 r \$1-METRO;
#X obj 71 394 s \$1-beat-0;
#X obj 87 419 s \$1-beat-1;
#X obj 103 445 s \$1-beat-2;
#X obj 119 470 s \$1-beat-3;
#X obj 136 497 s \$1-beat-4;
#X obj 152 522 s \$1-beat-5;
#X obj 168 548 s \$1-beat-6;
#X obj 184 573 s \$1-beat-7;
#X msg 667 431 0;
#X obj 667 405 sel 1;
#X obj 71 344 % 8;
#X obj 108 122 cnv 19 140 160 empty empty empty 20 12 0 12 #feffc6 #404040 0;
#X obj 118 228 hsl 120 15 0 1 0 0 \$1-mother-vol empty metronome-volume 6 8 0 12 #fcfcfc #000000 #000000 0 1;
#X obj 133 177 tgl 19 0 \$1-START-MOTHER \$1-START-MOTHER-RCV START -5 -10 0 12 #ff0400 #000000 #000000 0 1;
#X obj 117 209 bng 15 250 50 0 \$1-beat-0-snd \$1-beat-0 empty 0 -10 0 12 #fcfcfc #000000 #000000;
#X obj 132 209 bng 15 250 50 0 \$1-beat-1-snd \$1-beat-1 empty 0 -10 0 12 #fcfcfc #000000 #000000;
#X obj 147 209 bng 15 250 50 0 \$1-beat-2-snd \$1-beat-2 empty 0 -10 0 12 #fcfcfc #000000 #000000;
#X obj 162 209 bng 15 250 50 0 \$1-beat-3-snd \$1-beat-3 empty 0 -10 0 12 #fcfcfc #000000 #000000;
#X obj 177 209 bng 15 250 50 0 \$1-beat-4-snd \$1-beat-4 empty 0 -10 0 12 #fcfcfc #000000 #000000;
#X obj 192 209 bng 15 250 50 0 \$1-beat-5-snd \$1-beat-5 empty 0 -10 0 12 #fcfcfc #000000 #000000;
#X obj 207 209 bng 15 250 50 0 \$1-beat-6-snd \$1-beat-6 empty 0 -10 0 12 #fcfcfc #000000 #000000;
#X obj 222 209 bng 15 250 50 0 \$1-beat-7-snd \$1-beat-7 empty 0 -10 0 12 #fcfcfc #000000 #000000;
#X floatatom 181 178 5 0 0 2 BPM \$1-BPM-MOD-RCV \$1-BPM-MOD 0;
#X obj 507 121 f;
#X obj 523 221 f;
#X obj 475 69 r \$1-RESET;
#X obj 475 95 t b b;
#N canvas 295 333 182 274 bpm2ms 0;
#X obj 56 69 / 60;
#X obj 56 93 t b f;
#X obj 56 142 /;
#X msg 56 117 1;
#X obj 56 166 * 1000;
#X obj 56 42 inlet;
#X obj 56 190 outlet;
#X connect 0 0 1 0;
#X connect 1 0 3 0;
#X connect 1 1 2 1;
#X connect 2 0 4 0;
#X connect 3 0 2 0;
#X connect 4 0 6 0;
#X connect 5 0 0 0;
#X restore 793 404 pd bpm2ms;
#X obj 793 380 r \$1-BPM-MOD;
#X obj 335 375 r \$1-BPM;
#X obj 299 349 r \$1-BPM-MOD;
#X obj 299 375 /;
#X obj 299 448 s \$1-playspeed;
#X obj 299 399 * 100;
#X floatatom 299 423 5 0 0 0 - - - 0;
#X obj 582 147 s \$1-BPM-MOD-RCV;
#X obj 666 57 inlet;
#X text 713 56 for dynamic tempo input;
#X obj 252 122 cnv 19 120 160 empty empty empty 20 12 0 12 #ffe3c6 #404040 0;
#X msg 97 669 120;
#X obj 97 640 loadbang;
#X msg 194 669 8;
#X floatatom 263 177 5 0 0 1 BASE\ BPM \$1-BPM-SET \$1-BPM 0;
#X floatatom 263 201 5 0 0 1 BEATS \$1-BEATS_PER_LOOP-SET \$1-BEATS_PER_LOOP-SND 0;
#X text 288 125 SETUP;
#X obj 265 148 bng 19 250 50 0 \$1-RESET \$1-RESET-rcv RESET 30 10 0 12 #ff8300 #000000 #000000;
#X obj 194 694 s \$1-BEATS_PER_LOOP-SET;
#X obj 97 694 s \$1-BPM-SET;
#X obj 304 520 f;
#X obj 304 544 s \$1-BEATS_PER_LOOP;
#X obj 304 493 r \$1-RESET;
#X obj 336 519 r \$1-BEATS_PER_LOOP-SND;
#X obj 195 719 s \$1-BEATS_PER_LOOP;
#X obj 305 593 s \$1-START-MOTHER-RCV;
#X msg 305 568 0, f 4;
#X obj 146 17 loadbang;
#X msg 1059 354 disconnect;
#X text 1103 381 UDP \, FUDI;
#X obj 1003 409 tgl 19 0 empty empty empty 0 -10 0 12 #dfdfdf #000000 #000000 0 1;
#X obj 1003 380 netsend -u -b;
#X obj 1003 353 spigot;
#X text 1029 408 connected;
#X msg 1121 324 connect localhost \$1;
#X floatatom 263 226 5 0 0 1 PORT\ SND \$1-PORT_SND-rcv \$1-PORT_SND 0;
#X obj 1129 207 oscformat;
#X obj 1003 324 r \$1-SEND-OSC;
#X obj 1121 300 r \$1-PORT_SND;
#X obj 1015 45 r \$1-START-MOTHER;
#X msg 1152 178 set MOTHER_LOOPER;
#X obj 1129 151 t f b f;
#X obj 1129 233 s \$1-SEND-OSC;
#X obj 1015 69 sel 0 1;
#X msg 949 127 0;
#X msg 1129 126 1;
#X obj 972 206 oscformat;
#X msg 995 177 set MOTHER_LOOPER;
#X obj 972 232 s \$1-SEND-OSC;
#X obj 949 152 t f f b;
#X text 1041 273 OSC COMMUNICATION;
#X msg 146 44 6666;
#X obj 1055 476 r \$1-RESET;
#X msg 1019 561 0;
#X obj 1019 535 del 20;
#X obj 1107 561 oscformat;
#X obj 1107 587 s \$1-SEND-OSC;
#X msg 1139 530 set RESET;
#X msg 1107 531 1;
#X msg 1220 531 1;
#X obj 1090 614 t b b;
#X obj 1090 670 oscformat;
#X obj 1090 696 s \$1-SEND-OSC;
#X obj 1090 643 f;
#X obj 1122 643 r \$1-BEATS_PER_LOOP;
#X obj 1072 725 t b b;
#X msg 1143 781 set BASE_BPM;
#X obj 1072 781 oscformat;
#X obj 1072 807 s \$1-SEND-OSC;
#X obj 1072 754 f;
#X msg 1161 671 set BEATS_PER_LOOP;
#X obj 1104 754 r \$1-BPM;
#X obj 1055 502 t b b b b b b;
#X obj 819 648 f;
#X obj 854 648 + 1;
#X msg 837 619 0;
#X obj 819 674 t f b;
#X obj 819 727 oscformat;
#X obj 819 753 s \$1-SEND-OSC;
#X msg 851 700 set END_OF_SUBDIV;
#X obj 819 594 del 100;
#X obj 190 43 s \$1-RESET-rcv;
#X obj 146 68 s \$1-PORT_SND-rcv;
#X obj 1343 108 oscparse;
#X obj 1343 139 route list;
#X obj 1343 82 netreceive -u -b 6667;
#X obj 1343 166 route loopdecision;
#X msg 1343 54 listen \$1;
#X floatatom 263 250 5 0 0 1 PORT\ RCV \$1-PORT_RCV-rcv \$1-PORT_RCV 0;
#X obj 307 40 s \$1-PORT_RCV-rcv;
#X msg 307 16 6667;
#X obj 1343 203 route A;
#X obj 1343 30 r \$1-PORT_RCV-rcv;
#X obj 1422 205 route Z;
#X obj 1343 230 symbol \$1;
#X obj 1343 256 s2l;
#X floatatom 1343 281 5 0 0 0 - - - 0;
#X obj 1343 304 s \$1-A;
#X obj 1422 231 symbol \$1;
#X obj 1422 257 s2l;
#X floatatom 1422 282 5 0 0 0 - - - 0;
#X obj 1422 305 s \$1-Z;
#X obj 1485 203 print decision;
#X connect 0 0 1 0;
#X connect 0 0 48 0;
#X connect 1 0 2 0;
#X connect 2 0 19 0;
#X connect 3 0 62 1;
#X connect 4 0 5 0;
#X connect 5 0 11 1;
#X connect 6 0 35 0;
#X connect 8 0 4 0;
#X connect 9 0 6 0;
#X connect 10 0 9 1;
#X connect 11 0 9 0;
#X connect 12 0 11 0;
#X connect 12 1 10 0;
#X connect 14 0 32 0;
#X connect 15 0 14 0;
#X connect 16 0 15 1;
#X connect 17 0 15 0;
#X connect 18 0 16 0;
#X connect 19 0 20 0;
#X connect 19 0 22 0;
#X connect 20 0 21 0;
#X connect 21 0 19 1;
#X connect 22 0 23 0;
#X connect 22 0 33 0;
#X connect 23 0 27 0;
#X connect 23 0 147 0;
#X connect 23 1 18 0;
#X connect 24 0 25 0;
#X connect 25 0 14 0;
#X connect 26 0 25 1;
#X connect 27 0 26 0;
#X connect 29 0 14 1;
#X connect 30 0 0 0;
#X connect 31 0 39 0;
#X connect 31 1 40 0;
#X connect 31 2 41 0;
#X connect 31 3 42 0;
#X connect 31 4 43 0;
#X connect 31 5 44 0;
#X connect 31 6 45 0;
#X connect 31 7 46 0;
#X connect 34 0 21 1;
#X connect 36 0 63 1;
#X connect 37 0 3 0;
#X connect 38 0 49 0;
#X connect 47 0 19 0;
#X connect 48 0 47 0;
#X connect 48 0 142 0;
#X connect 49 0 31 0;
#X connect 62 0 8 0;
#X connect 62 0 74 0;
#X connect 63 0 12 0;
#X connect 64 0 65 0;
#X connect 65 0 63 0;
#X connect 65 1 62 0;
#X connect 66 0 1 1;
#X connect 67 0 66 0;
#X connect 68 0 70 1;
#X connect 69 0 70 0;
#X connect 70 0 72 0;
#X connect 72 0 73 0;
#X connect 73 0 71 0;
#X connect 75 0 74 0;
#X connect 78 0 86 0;
#X connect 79 0 78 0;
#X connect 79 0 80 0;
#X connect 80 0 85 0;
#X connect 80 0 91 0;
#X connect 87 0 88 0;
#X connect 89 0 87 0;
#X connect 89 0 93 0;
#X connect 90 0 87 1;
#X connect 93 0 92 0;
#X connect 94 0 118 0;
#X connect 94 0 148 0;
#X connect 94 0 157 0;
#X connect 95 0 98 0;
#X connect 98 0 97 0;
#X connect 101 0 98 0;
#X connect 103 0 109 0;
#X connect 104 0 99 0;
#X connect 104 0 98 0;
#X connect 105 0 101 0;
#X connect 106 0 110 0;
#X connect 107 0 103 0;
#X connect 108 0 103 0;
#X connect 108 1 107 0;
#X connect 108 2 99 1;
#X connect 110 0 111 0;
#X connect 110 1 112 0;
#X connect 111 0 116 0;
#X connect 112 0 108 0;
#X connect 113 0 115 0;
#X connect 114 0 113 0;
#X connect 116 0 99 1;
#X connect 116 1 113 0;
#X connect 116 2 114 0;
#X connect 118 0 149 0;
#X connect 119 0 139 0;
#X connect 120 0 99 1;
#X connect 121 0 120 0;
#X connect 122 0 123 0;
#X connect 124 0 122 0;
#X connect 125 0 122 0;
#X connect 126 0 99 1;
#X connect 127 0 130 0;
#X connect 127 1 137 0;
#X connect 128 0 129 0;
#X connect 130 0 128 0;
#X connect 131 0 130 1;
#X connect 132 0 136 0;
#X connect 132 1 133 0;
#X connect 133 0 134 0;
#X connect 134 0 135 0;
#X connect 136 0 134 0;
#X connect 137 0 128 0;
#X connect 138 0 136 1;
#X connect 139 0 121 0;
#X connect 139 1 132 0;
#X connect 139 2 127 0;
#X connect 139 3 125 0;
#X connect 139 4 124 0;
#X connect 139 5 126 0;
#X connect 140 0 141 0;
#X connect 140 0 143 0;
#X connect 141 0 140 1;
#X connect 142 0 140 1;
#X connect 143 0 144 0;
#X connect 143 1 146 0;
#X connect 144 0 145 0;
#X connect 146 0 144 0;
#X connect 147 0 140 0;
#X connect 150 0 151 0;
#X connect 151 0 153 0;
#X connect 152 0 150 0;
#X connect 153 0 158 0;
#X connect 153 0 160 0;
#X connect 153 0 169 0;
#X connect 154 0 152 0;
#X connect 157 0 156 0;
#X connect 158 0 161 0;
#X connect 159 0 154 0;
#X connect 160 0 165 0;
#X connect 161 0 162 0;
#X connect 162 0 163 0;
#X connect 163 0 164 0;
#X connect 165 0 166 0;
#X connect 166 0 167 0;
#X connect 167 0 168 0;
#X coords 0 -1 1 1 280 190 1 100 100;
