#N canvas 513 204 476 425 12;
#X obj 52 140 until;
#X obj 52 164 f;
#X msg 98 140 0;
#X obj 85 164 + 1;
#X obj 52 87 t b b b;
#X obj 52 196 list append;
#X msg 52 220 symbol \$2-\$1;
#X obj 52 63 bng 19 250 50 0 empty empty empty 0 -10 0 12 #fcfcfc #000000 #000000;
#X obj 52 272 array get;
#X obj 52 297 oscformat;
#X obj 52 244 t b a;
#X text 90 114 num features;
#X obj 156 207 t b f;
#X obj 156 257 pack;
#X obj 52 37 inlet;
#X obj 52 321 outlet;
#X obj 126 171 symbol \$1;
#X text 279 77 \$1: array name;
#X text 279 113 \$3: feature name;
#X text 279 131 \$4: instance #N;
#X text 279 95 \$2: num features;
#X obj 52 114 f \$2;
#X obj 156 232 f \$4;
#X obj 156 281 list append;
#X obj 230 256 symbol \$3;
#X obj 230 231 loadbang;
#X text 265 49 SEND MULTIARRAY TO OSC;
#X obj 244 305 symbol \$5;
#X obj 156 305 list append;
#X msg 156 333 set features \$1 \$4 \$3-\$2;
#X text 46 358 OSC address: features/<numloop>/<signal OR context>/<featurename>-<numfeature>, f 43;
#X connect 0 0 1 0;
#X connect 1 0 3 0;
#X connect 1 0 5 0;
#X connect 1 0 12 0;
#X connect 2 0 1 1;
#X connect 3 0 1 1;
#X connect 4 0 21 0;
#X connect 4 1 16 0;
#X connect 4 2 2 0;
#X connect 5 0 6 0;
#X connect 6 0 10 0;
#X connect 7 0 4 0;
#X connect 8 0 9 0;
#X connect 9 0 15 0;
#X connect 10 0 8 0;
#X connect 10 1 8 2;
#X connect 12 0 22 0;
#X connect 12 1 13 1;
#X connect 13 0 23 0;
#X connect 14 0 7 0;
#X connect 16 0 5 1;
#X connect 21 0 0 0;
#X connect 22 0 13 0;
#X connect 23 0 28 0;
#X connect 24 0 23 1;
#X connect 25 0 24 0;
#X connect 25 0 27 0;
#X connect 27 0 28 1;
#X connect 28 0 29 0;
#X connect 29 0 9 0;
